<svg viewBox="0 0 1000 1000" xmlns="http://www.w3.org/2000/svg"><path d="m546.666687 469.111145h-103.333343v-92.888977h103.333343zm0-319.111145h-103.333343v94.888916h103.333343zm122.222229 226.222168h-103.333374v92.666748h103.333374zm-244.222229-112.666626h-103.333343v94h103.333343zm122 0h-103.333343v94h103.333343zm432.444458 156.222229c-22.444458-15.111084-74.444458-20.666626-114.222229-13.111084-5.111145-37.555542-26-70.222229-64.22229-99.555542l-21.77771-14.444458-14.444458 21.777771c-28.666687 43.333313-36.666687 114.888916-5.777832 162.222229-13.555542 7.333313-40.222229 17.333282-75.555542 16.666657h-679.333304c-13.555557 79.333343 9.111107 182.444488 68.666663 253.333343 58 68.666626 144.888901 103.333313 258.444442 103.333313 246.000031 0 428.000031-113.333374 513.111115-319.111084 33.333313.666626 105.555542.222168 142.666687-70.666687 2.444458-4.000061 10.222229-20.666687 13.333313-26.666687zm-798.444473-43.555603h-103.111115v92.666748h103.333328zm121.999984 0h-103.333328v92.666748h103.333328zm122.000031 0h-103.333343v92.666748h103.333343zm-122.000031-112.666626h-103.333328v94h103.333328z"/></svg>
