<svg viewBox="0 0 1000 1000" xmlns="http://www.w3.org/2000/svg"><path d="m500 0c-276.25 0-500 223.75-500 500 0 221.25 143.125 408.125 341.875 474.375 25 4.375 34.375-10.625 34.375-23.75 0-11.875-.625-51.25-.625-93.125-125.625 23.125-158.125-30.625-168.125-58.75-5.625-14.375-30-58.75-51.25-70.625-17.5-9.375-42.5-32.5-.625-33.125 39.375-.625 67.5 36.25 76.875 51.25 45 75.625 116.875 54.375 145.625 41.25 4.375-32.5 17.5-54.375 31.875-66.875-111.25-12.5-227.5-55.625-227.5-246.875 0-54.375 19.375-99.375 51.25-134.375-5-12.5-22.5-63.75 5-132.500061 0 0 41.875-13.124939 137.5 51.250061 40-11.25 82.5-16.875 125.000031-16.875 42.499969 0 84.999969 5.625 124.999969 16.875 95.625-65 137.5-51.250061 137.5-51.250061 27.5 68.750061 10 120.000061 5 132.500061 31.875 35 51.25 79.375 51.25 134.375 0 191.875-116.875 234.375-228.125 246.875 18.125 15.625 33.75 45.625 33.75 92.5 0 66.875-.625 120.625-.625 137.5 0 13.125 9.375 28.75 34.375 23.75 203.527893-68.708984 340.570129-259.562256 340.625-474.375 0-276.25-223.75-500-500-500z"/></svg>
