<svg viewBox="0 0 1000 1000" xmlns="http://www.w3.org/2000/svg"><path d="m0 71.625c0-39.5625 32.875-71.625 73.4375-71.625h853.125c40.5625 0 73.4375 32.0625 73.4375 71.625v856.75c0 39.5625-32.875 71.625-73.4375 71.625h-853.125c-40.5625 0-73.4375-32.0625-73.4375-71.625zm308.9375 765.5v-451.562439h-150.0625v451.562439zm-75-513.25c52.3125 0 84.875-34.625 84.875-78-.9375-44.3125-32.5-78-83.875-78s-84.9375 33.75-84.9375 78c0 43.375 32.5625 78 82.9375 78zm306.75 513.25v-252.1875c0-13.5 1-27 5-36.625 10.8125-26.9375 35.5-54.874969 77-54.874969 54.3125 0 76 41.374969 76 102.124969v241.5625h150.0625v-259c0-138.749939-74-203.25-172.75-203.25-79.625 0-115.3125 43.75-135.3125 74.5625v1.5625h-1c.33197-.521667.665283-1.042542 1-1.5625v-63.874939h-150c1.875 42.374939 0 451.562439 0 451.562439z"/></svg>
