<svg viewBox="0 0 1000 1000" xmlns="http://www.w3.org/2000/svg"><path d="m322 919.200012c-45-12.600036-40.600006-108 15-98.600036 50.399994 1.400024 101.399994.600036 148.600006-19.599976 22.600006-4 76.399994-42.400024 23.399994-35-104.799988-2-210 2.599976-314.600006-3.599976-73.999992-7.400024-162.799994-36.400024-186.799994-115-13.6-58.400024-4.4-119.400024-7-178.800048.8-58.599976-8.6-127.399964 37.999998-172.599976 66.400002-62 164.000008-68 250.000008-68 100 .599976 210.600006-5 295.99997 56.599976 44 32 59.200012 88.400024 54 140-.399964 118 2.600036 236-1.399964 353.400024-12.400024 81.200012-98.600036 120.799988-171.400024 134-48 8.799988-96 8.799988-144 7.200012zm214-252.600036c2.799988-36 0-75.199952 1.200012-112.399964-1-54.400024 2.599976-110-2-164.799988-21.400024-48-82-55.200012-128-59.600036-82 1.200012-165.000015-5.599976-246.600006 4-52.400009 4.799988-65.600006 60-58.600006 103.599975 0 57.200043-.599998 114.400025.800003 171.600037 15.199997 49.799988 77.199997 54.200012 121.199997 57 104 2 208 1.200012 312 .599976zm218 103.400024c-60.799988 3-50.400024-60.599976-49.599976-98.599976.399964-150.800048-1.600036-301.600036 1.199952-452 4-68 64-117.400024 128-128 48-8.800048 132.600036-18 146.400024-4.400024 36 29.200012 16 98.599976-40 94-44.599976 2-104-5-131 38.599976-10 20 27.400024 13.400024 40 13.600036 42.599976 1.200012 86-2 128.400024 3 41.199952 17 23.599976 101.399964-32.600036 96-46.399964 1.200012-92.799988 0-139.200012 1.599976-1.599976 136 1.600036 272.799988-2 409-2.599976 25.400024-13.399964 27.600036-50 28z"/></svg>
