<svg viewBox="0 0 1000 1000" xmlns="http://www.w3.org/2000/svg"><path d="m985.125 205.708374c-34.791626 15.416565-72.166687 25.833252-111.458313 30.541626 40.083313-24 70.833252-62.083313 85.333374-107.416687-37.500122 22.25-79.041748 38.416687-123.250061 47.083374-35.416687-37.666626-85.833374-61.25-141.666626-61.25-107.166687 0-194.083374 86.916626-194.083374 194.166687 0 15.166687 1.75 29.916626 5 44.166626-161.375-8.125-304.333328-85.416626-400.083336-202.833313-16.666664 28.75-26.25 62.083313-26.25 97.583252 0 67.333435 34.291664 126.791748 86.333336 161.583435-31.833328-1.041687-61.75-9.750061-87.916664-24.291687v2.499939c0 94.041687 66.874992 172.5 155.70832 190.333374-16.333312 4.416687-33.458328 6.75-51.124984 6.75-12.5 0-24.708344-1.166626-36.541672-3.416626 24.708344 77.083252 96.375 133.249939 181.333344 134.75-66.458344 52.083313-150.166672 83.124939-241.083344 83.124939-15.666664 0-31.125-.916626-46.333336-2.708313 85.916672 55.125 187.916664 87.208313 297.499992 87.208313 357.083344 0 552.291718-295.75 552.291718-552.25 0-8.333374-.208374-16.75-.583313-25.083313 37.916626-27.416687 70.833252-61.541626 96.791626-100.416626z"/></svg>
