<svg viewBox="0 0 1000 1000" xmlns="http://www.w3.org/2000/svg"><path d="m388.75 762c-28.125-7.875-25.375-67.5 9.375-61.625 31.5.875 63.375.375 92.875-12.25 14.125-2.5 47.75-26.5 14.625-21.875-65.5-1.25-131.25 1.625-196.625-2.25-46.25-4.625-101.75-22.75-116.75-71.875-8.5-36.5-2.75-74.625-4.375-111.75.5-36.625-5.375-79.625 23.75-107.875 41.5-38.75 102.5-42.5 156.25-42.5 62.5.375 131.625-3.125 185 35.375 27.5 20 37 55.25 33.75 87.5-.25 73.75 1.625 147.5-.875 220.875-7.75 50.75-61.625 75.5-107.125 83.75-30 5.5-60 5.5-90 4.5zm133.75-157.875c1.75-22.5 0-47 .75-70.25-.625-34 1.625-68.75-1.25-103-13.375-30-51.25-34.5-80-37.25-51.25.75-103.125-3.5-154.125 2.5-32.75 3-41 37.5-36.625 64.75 0 35.75-.375 71.5.5 107.25 9.5 31.125 48.25 33.875 75.75 35.625 65 1.25 130 .75 195 .375zm136.25 64.625c-38 1.875-31.5-37.875-31-61.625.25-94.25-1-188.5.75-282.5 2.5-42.5 40-73.375 80-80 30-5.5 82.875-11.25 91.5-2.75 22.5 18.25 10 61.625-25 58.75-27.875 1.25-65-3.125-81.875 24.125-6.25 12.5 17.125 8.375 25 8.5 26.625.75 53.75-1.25 80.25 1.875 25.75 10.625 14.75 63.375-20.375 60-29 .75-58 0-87 1-1 85 1 170.5-1.25 255.625-1.625 15.875-8.375 17.25-31.25 17.5z"/></svg>
