<svg xmlns="http://www.w3.org/2000/svg" width="500" height="500" display="block">
  <g fill-rule="evenodd">
    <path d="M137.014 103.2c-.753.88-2.01 1.6-2.792 1.6-.927 0-1.422.606-1.422 1.74v1.74l1.8-1.66c.99-.913 2.486-1.786 3.324-1.94.84-.154 1.617-.91 1.73-1.68.273-1.866-.95-1.773-2.64.2m224.786-1.102c.77.23 1.4.933 1.4 1.56 0 .77.905 1.142 2.772 1.142 1.953 0 3.025.473 3.628 1.6.47.88 1.36 1.6 1.974 1.6.615 0 1.347.72 1.626 1.6.28.88.94 1.6 1.465 1.6.527 0 1.852 1.885 2.946 4.19l1.99 4.19-.25 72.01c-.14 39.605-.46 72.723-.71 73.595-1.19 4.115-10.69 14.015-13.44 14.015-.98 0-2.24.54-2.79 1.2-.85 1.03-5.77 1.21-34.69 1.27-69.97.148-97.48 1.042-94.21 3.062 1.44.886-.61 1.63-4.95 1.798-3.06.12-2.97.17 1.07.6 5.8.62 5.3 1.942-.98 2.578-6.33.64-7.1.842-9.69 2.54-2.51 1.65-2.74 2.952-.52 2.952 1.07 0 1.6-.533 1.6-1.6 0-1.59.54-1.6 77.9-1.6 74.25 0 77.98-.068 79.8-1.464 1.05-.805 2.54-1.694 3.31-1.975.77-.28 1.4-1.06 1.4-1.73 0-.67.55-1.22 1.23-1.22.68 0 1.46-.63 1.75-1.4.29-.77 1.18-1.87 1.98-2.44.8-.57 1.46-1.92 1.46-3s.72-2.67 1.6-3.55c2.52-2.51 2.52-152.31 0-155.01-.88-.94-1.6-2.43-1.6-3.31 0-2.72-10.03-12.08-12.95-12.08-1.4 0-2.9-.59-3.46-1.35-.73-1-2.41-1.41-6.49-1.56-3.02-.11-4.86-.01-4.09.22m-234.57 7.45c-1.14 2.13-1.06 2.36.7 1.91 1.82-.47 2.87-3.45 1.23-3.45-.6 0-1.47.7-1.92 1.55m-72.9 55.95c0 1.15.52 1.66 1.66 1.66s1.58-.43 1.39-1.39c-.4-2.08-3.05-2.32-3.05-.27m-35.04 2.62c-1.29 1.3-1.21 2.24.19 2.24.66 0 1.1-.68 1.03-1.6-.06-.88-.15-1.6-.19-1.6-.04 0-.5.44-1.03.96m47.84 3.87c0 .87.54 1.58 1.2 1.58.66 0 1.2-.5 1.2-1.11s-.54-1.32-1.2-1.57c-.81-.31-1.2.05-1.2 1.12m-56 3.18c0 1.07-.53 1.6-1.6 1.6-1.06 0-1.6.54-1.6 1.6 0 1.07-.53 1.6-1.6 1.6-1.06 0-1.6.54-1.6 1.6 0 1.07.54 1.6 1.6 1.6.99 0 1.61-.53 1.61-1.4.01-.77 1.43-2.93 3.17-4.8 2.64-2.83 2.9-3.4 1.59-3.4-1.03 0-1.57.55-1.57 1.6m59.2 0c0 1.07.54 1.6 1.6 1.6 1.07 0 1.6.54 1.6 1.6 0 .89.54 1.6 1.2 1.6 1.55 0 1.57-2.31.03-2.9-.64-.24-1.38-1.13-1.65-1.97-.64-2.02-2.77-1.96-2.77.08M0 197.2c0 1.1.36 2 .8 2 .44 0 .8-.9.8-2s-.36-2-.8-2c-.44 0-.8.9-.8 2m0 26c0 1.76.36 3.2.8 3.2.44 0 .8 1.21.8 2.692 0 1.48.72 3.607 1.6 4.726.88 1.12 1.6 2.526 1.6 3.126 0 1.48 12.928 14.256 14.424 14.256.655 0 1.64.72 2.19 1.6.565.905 1.866 1.6 2.993 1.6 1.096 0 2.713.72 3.593 1.6 1.177 1.177 2.667 1.6 5.63 1.6h4.032l-1.554-1.668c-.974-1.046-2.404-1.612-3.83-1.516-3.566.24-4.12.087-5.66-1.567-.795-.86-2.42-1.73-3.61-1.95C20.882 250.52 8 238.38 8 236.76c0-.42-.54-.762-1.2-.762-.66 0-1.14-.27-1.065-.6.338-1.507-1.196-6.53-2.102-6.875-.555-.213-1.252-2.218-1.548-4.456-.64-4.83-2.085-5.43-2.085-.87m71.2 27.4c-1.54.402-3.543 1.42-4.452 2.265-.908.844-2.08 1.535-2.602 1.535-.524 0-2.295.72-3.937 1.6l-2.99 1.6h3.32c4.09 0 5.85-.627 5.85-2.085 0-.745.95-1.114 2.87-1.114 2.2 0 2.97-.372 3.29-1.6.83-3.184 1.83-1.493 1.83 3.104 0 3.204.38 5.02 1.2 5.698 1.04.87 1.2.294 1.2-4.51 0-6.486-1.03-7.68-5.6-6.49m142.55 49c-.96 1.1-2.11 2-2.55 2-.45 0-.81.528-.81 1.173 0 .644-.72 1.557-1.6 2.028-.88.47-1.6 1.41-1.6 2.08 0 .67-.35 1.01-.78.74-.42-.26-1.23.26-1.79 1.16-.56.89-1.43 1.63-1.94 1.63-1.01 0-2.19 2.37-1.51 3.05.23.23.42.01.42-.49s.99-1.44 2.2-2.08c2.91-1.54 9.8-7.97 9.8-9.15 0-.51.72-1.64 1.6-2.52.88-.88 1.3-1.6.94-1.6-.36 0-1.44.9-2.4 2m-16.55 15.6c-.8.88-1.12 1.6-.71 1.6.41 0 1.36-.72 2.11-1.6.76-.88 1.07-1.6.7-1.6-.37 0-1.32.72-2.12 1.6m-6.62 3.2c-.81 1.28-.8 1.6.01 1.6.56 0 1.46-.72 2.01-1.6.8-1.28.8-1.6-.02-1.6-.56 0-1.47.72-2.02 1.6m-77.78.39c-.69.83-.73 1.21-.11 1.21.49 0 .9-.45.91-1 .01-.68.25-.62.75.18.41.65.95.97 1.2.72.26-.26-.03-.88-.65-1.39-.85-.71-1.34-.64-2.11.29m-12.35 3.43c-.37 1.44-1.01 2.83-1.43 3.09-.42.26.06.89 1.08 1.4 1.61.8 1.81 1.42 1.6 4.87-.22 3.53-.11 3.83 1.03 2.89 1.59-1.32 1.65-5.14.11-6.42-.64-.53-1.29-2.64-1.44-4.69-.29-3.7-.29-3.71-.95-1.12m84.34-1.08c0 .63-.45 1.32-1 1.54-.77.31-.76.42.05.47 1.47.09 4.14-1.44 4.14-2.36 0-.43-.72-.77-1.6-.77-.88 0-1.6.51-1.6 1.13m-57.6 2.41c0 .66 2.52 2.86 3.28 2.86.46 0 .43-.63-.09-1.6-.73-1.35-3.2-2.32-3.2-1.26m48.58 1.26c-.76.88-.99 1.6-.53 1.6 1.36 0 3.94-1.59 3.94-2.42 0-1.32-1.98-.84-3.42.83m-33.83 2.83c2.61 1.97 25.22 1.48 23.98-.53-.24-.38-6.09-.69-12.99-.68-11.21.02-12.39.15-11 1.2M94.4 343.14c0 .41-.63.907-1.4 1.11-1.054.274-.955.387.4.457 1.108.057 1.8-.368 1.8-1.107 0-.66-.18-1.2-.4-1.2-.22 0-.4.334-.4.74m-33.702 33.39c-1.004 1.218-.927 1.243.902.293 2.682-1.394 2.884-1.623 1.43-1.623-.678 0-1.728.6-2.332 1.33M14.55 396.6c.146.77 1.1 1.52 2.12 1.664 1.652.235 1.758.082.964-1.4-1.093-2.042-3.462-2.245-3.084-.264"/>
    <path fill="red" d="M72.196 300.2c.18.55 1.184 1.125 2.228 1.277 1.658.242 1.765.115.84-1-1.253-1.51-3.542-1.716-3.068-.277m27.416 37.175l-1.405 2.225 1.852-1.778c1.01-.978 1.65-1.98 1.4-2.225-.25-.246-1.08.554-1.85 1.778m-31.49 31.108c-.6.672-.93 1.38-.73 1.575.19.193 1-.37 1.8-1.253.8-.883 1.12-1.59.73-1.575-.4.017-1.21.58-1.81 1.253"/>
    <path fill="#b86806" d="M75.07 303c.402.77.466 2.12.144 3-.707 1.93.624 5.2 2.114 5.2 1.242 0 1.26-.22.36-4.097-.623-2.683-.548-2.87 1.02-2.54 1.622.344 1.614.29-.197-1.302-2.38-2.09-4.47-2.25-3.44-.26M84 319.84c0 .353 1.438 2.855 3.196 5.56 4.302 6.62 5.675 4.676-24.556 34.8-28.217 28.116-27.327 27.47-32.764 23.8-1.956-1.32-3.86-2.4-4.23-2.4-.37 0-.882-.54-1.135-1.2-.25-.66-1.34-1.2-2.41-1.2h-1.96l2.53 2.957c1.4 1.626 4.07 4.633 5.94 6.683 2.7 2.956 3.4 4.33 3.4 6.643 0 4.548 5.69 4.386 9.91-.283 1.59-1.76 3.47-3.2 4.18-3.2.81 0 1.12-.44.83-1.188-.43-1.133 2.33-3.367 3.69-2.982.33.094.61-.82.62-2.03.01-1.564.22-1.882.71-1.098.39.607 1.11.852 1.61.545.5-.307.69-.894.44-1.306-.37-.6 7.08-8.74 8.01-8.74.62 0 5.23-4.7 5.23-5.34 0-.38.75-1.23 1.67-1.88 1.9-1.34 6.33-5.45 6.33-5.87 0-.96 7.29-7.86 8.51-8.05.82-.13 1.44-.82 1.38-1.54-.07-.77.49-1.3 1.35-1.3.81 0 1.69-.36 1.96-.8.27-.44.12-.8-.34-.8s-.25-.68.47-1.53c.72-.84 1.8-1.34 2.39-1.11.67.26 1.09-.15 1.11-1.07.01-.81 1.21-2.37 2.67-3.45 4.76-3.53 7.03-7.5 6.75-11.82l-.24-3.81h-2.96c-2.82 0-11.04-5.2-11.04-6.98 0-.34-.72-.62-1.6-.62-.88 0-1.6.29-1.6.64m-56 20.99c0 .46-.78 1.12-1.74 1.47-.95.36-1.37.87-.91 1.15.45.28 1.66-.38 2.68-1.47 1.02-1.08 1.44-1.97.92-1.97s-.94.38-.94.83m-10.4 9.71c0 1.28-.78 1.79-2.47 1.61-.26-.03-.47.45-.47 1.06 0 1.38 2.45-.15 4.16-2.59.92-1.3.91-1.54-.07-1.54-.63 0-1.15.66-1.15 1.47m-9.6 9.52c0 .53-.63 1.47-1.4 2.09-1.27 1.03-1.24 1.05.36.29 2.19-1.05 2.92-2.17 1.86-2.83-.44-.27-.81-.07-.81.46"/>
    <path fill="#f4a216" d="M68.8 301.2c-.548.66-1.693 1.2-2.545 1.2-.852 0-1.334.348-1.07.774.672 1.09-4.302 6.08-5.752 5.772-.656-.14-.974.102-.706.536.66 1.068-1.837 3.468-2.915 2.802-.51-.315-.627-.155-.287.394.348.563-.232 1.23-1.483 1.706-1.13.43-2.008 1.06-1.953 1.398.29 1.786-.24 2.663-1.48 2.453-.76-.13-1.39.185-1.4.698-.03 1.196-1.09 2.262-2.29 2.285-.52.01-.83.64-.7 1.4.21 1.238-.24 1.534-1.99 1.313-.3-.03-1.13 1.14-1.85 2.6-.72 1.47-1.71 2.59-2.21 2.49-.5-.1-1.13.53-1.41 1.4-.28.87-1.02 1.59-1.65 1.59-.63 0-1.15.38-1.15.85s-.32.65-.71.41c-.39-.24-1.16.1-1.7.76-.55.66-.68 1.22-.29 1.24.38.03-.12.38-1.11.78s-1.8 1.28-1.8 1.95c0 .68-.42 1.23-.94 1.23s-.69.25-.4.54c.91.92-2.74 4.19-4.09 3.67-.82-.31-1.05-.16-.67.46.36.58-.22 1.24-1.52 1.74-1.16.44-1.9 1.12-1.66 1.51.51.83-1.44 2.67-2.22 2.09-.29-.21-.36-.16-.15.11.72.99-1.28 3.54-2.6 3.32-.74-.12-1.36.14-1.37.58-.06 1.42-1.3 2.84-2.07 2.36-.41-.25-1.11.49-1.54 1.64-.5 1.3-1.16 1.88-1.74 1.52-.62-.38-.77-.15-.45.7.59 1.53-1.36 3.36-2.7 2.53-.6-.37-.75-.25-.39.33.32.51.28.93-.08.93-.94 0-1.05 4.24-.14 5.33.5.6.47 1.12-.08 1.46-1.56.96.04 2.01 3.08 2.01 2.58 0 3.71.68 8.03 4.8 2.77 2.64 5.26 4.79 5.55 4.78.28-.01-.18-.55-1.04-1.2-1.49-1.12-1.46-1.17.62-1.17 1.2 0 2.39.54 2.64 1.2.252.66.763 1.2 1.133 1.2s2.27 1.08 4.23 2.4c5.434 3.67 4.544 4.32 32.76-23.8 29.41-29.31 28.77-28.46 25.4-33.46-3.697-5.48-4.325-6.87-3.367-7.46.54-.34.57-.94.08-1.7-.67-1.04-.86-1.04-1.63.02-.76 1.04-.82 1.04-.47-.07.52-1.66-3.16-6.33-4.98-6.33-1.78 0-3.24-3.08-2.46-5.2.78-2.14-.49-4.4-2.49-4.4-.89 0-1.4-.36-1.13-.8.79-1.28-1.7-.92-2.8.4m9.58 16.38c4.79 5.13 5.74 3.8-23.88 33.3-29 28.88-27.61 27.84-32.65 24.54-6.07-3.98-6.68-3.12 24.35-34.02 28.37-28.25 28.18-28.11 32.19-23.82"/>
    <path fill="#3e526c" d="M139.795 102.2c-.834 1.673-.036 3 1.805 3 1.465 0 2.068-.482 2.256-1.8.25-1.772-3.258-2.81-4.06-1.2m139.804.24c6.16.31 12.64.614 14.4.675 2.254.077 2.86.324 2.053.836-.846.54-.425.82 1.6 1.06l2.747.34-2.8.19c-2.34.16-2.537.3-1.2.87 1.283.56 1.007.7-1.4.75-2.652.05-3 .29-3 2.06 0 1.25-.453 2-1.2 2-.66 0-1.2.67-1.2 1.48 0 1.4 1.656 1.5 33.077 1.95 36.506.53 36.874.58 41.947 6.16l1.834 2.02-.23 68.54c-.227 68.26-.235 68.56-1.912 70.8-3.85 5.17.077 4.85-71.657 5.95-73.49 1.13-67.86 1.56-67.88-5.18-.02-6.22-1.26-7.08-1.87-1.29-.29 2.71-1.03 6.06-1.65 7.46-.63 1.4-2.15 4.87-3.4 7.73-5.1 11.72-23.16 32.8-28.11 32.8-.48 0-1.34.48-1.92 1.05-1.48 1.47-10.85 6.15-12.31 6.15-.66 0-2.09.58-3.18 1.3-1.1.72-4.37 1.47-7.37 1.68-2.97.22-6.92 1.1-8.78 1.97-1.86.87-4.52 1.47-5.91 1.32-2.04-.21-2.66.1-3.22 1.61l-.69 1.86 14.45-.26c12.77-.23 14.55-.42 15.24-1.66.5-.9 1.74-1.4 3.48-1.4 3.48 0 5.22-.69 5.22-2.08 0-.7.88-1.11 2.39-1.11 1.52 0 2.75-.58 3.39-1.6.58-.93 1.86-1.6 3.08-1.6 1.14 0 2.73-.72 3.53-1.6.79-.88 1.91-1.6 2.47-1.6.56 0 1.25-.72 1.53-1.6.28-.88.94-1.6 1.46-1.6s1.41-.73 1.97-1.63c.56-.9 1.36-1.41 1.79-1.15.43.27.77-.07.77-.74 0-.67.72-1.6 1.6-2.07.88-.47 1.6-1.38 1.6-2.02s.3-1.17.68-1.17c1.37 0 5.72-4.86 5.72-6.39 0-2.91 3.81-4.69 11.81-5.5 6.28-.63 6.79-1.96.99-2.58-4.04-.43-4.13-.48-1.07-.6 4.34-.17 6.39-.91 4.95-1.79-3.27-2.02 24.24-2.91 94.21-3.06 28.92-.06 33.84-.24 34.7-1.27.55-.66 1.8-1.2 2.79-1.2 2.75 0 12.25-9.9 13.44-14.01.25-.87.57-33.99.71-73.59l.25-72.01-1.99-4.19c-1.09-2.3-2.42-4.19-2.95-4.19s-1.18-.72-1.46-1.6c-.28-.88-1.01-1.6-1.62-1.6s-1.51-.72-1.98-1.6c-.6-1.12-1.67-1.6-3.62-1.6-1.83 0-2.77-.37-2.77-1.1 0-1.96-2.88-2.07-49.2-1.94-29.35.08-41.61.33-34.4.69m-144.8 3.96c-.8.88-2.15 1.6-3 1.6-.85 0-1.73.69-1.95 1.53-.22.84-1.09 1.71-1.92 1.93-.84.22-1.53.95-1.53 1.62 0 .68-.72 1.45-1.6 1.73-2.84.9-2.29 6.99.6 6.66 1.93-.22 2.2-.59 2.2-3.04 0-2.01.39-2.86 1.4-3.05.77-.15 1.4-.72 1.4-1.27 0-1.02 2.51-3.39 5.26-4.97 1.58-.91 2.62-4.32 1.32-4.32-.41 0-1.39.72-2.18 1.6M27.56 165.4c-1.876 1.87.04 2.83 5.02 2.51 3.24-.2 3.833-.5 4.05-2.04.33-2.33-6.836-2.7-9.07-.47m19.615.54c0 2.27.6 2.96 2.08 2.39 1.82-.7 1.42-4.26-.48-4.26-1.144 0-1.6.538-1.6 1.87m6.183-.21c.24.91 1.29 1.99 2.33 2.38 1.04.4 1.89 1.27 1.89 1.94 0 1.428 5.17 1.76 6.02.39 1.05-1.71-1.4-3.168-5.32-3.168-3.37 0-3.9-.22-3.9-1.6 0-.88-.33-1.6-.73-1.6-.4 0-.53.75-.29 1.66m-32.8 2.02c-.266.26-.29.98-.05 1.6.25.66-.07 1.12-.78 1.12-.816 0-1.07.52-.79 1.6.494 1.895 1.475 2.08 2.12.4.25-.66 1.01-1.2 1.685-1.2.77 0 1.226-.736 1.226-2 0-1.9-2.1-2.835-3.42-1.52m-9.19 9.12c-1.86 1.98-3.39 4.23-3.4 5 0 .864-.62 1.4-1.61 1.4-1.03 0-1.6.534-1.6 1.51 0 .834-.71 1.693-1.6 1.925-2.64.69-2.29 6.17.4 6.17 1.76 0 2-.34 2-2.82 0-1.72.45-2.994 1.15-3.263.64-.25 1.39-1.52 1.68-2.83.29-1.317 1.06-2.6 1.73-2.85 2.35-.906 5.13-4.39 4.88-6.11-.22-1.54-.6-1.346-3.63 1.88m55.57-1.63c-.28 1.07.07 1.724 1.11 2.05.84.26 1.52.99 1.52 1.62 0 .69.8 1.15 2 1.15 1.47 0 2-.43 2-1.6 0-1.07-.53-1.6-1.6-1.6-1.06 0-1.6-.53-1.6-1.6 0-2.12-2.87-2.14-3.42-.03M76 186.4c0 2.244.342 3.2 1.146 3.2.63 0 1.375.72 1.654 1.6.28.88.802 1.6 1.16 1.6.926 0 1.717-3.455.91-3.97-.368-.237-.923-1.6-1.233-3.03-.887-4.086-3.637-3.633-3.637.6M0 214.733C0 217.63.348 220 .772 220c.425 0 1.016 1.83 1.313 4.068.296 2.238.993 4.243 1.548 4.456.906.347 2.44 5.368 2.102 6.876-.074.33.405.6 1.065.6.66 0 1.2.344 1.2.765 0 1.62 12.88 13.756 15.01 14.14 1.19.217 2.813 1.092 3.608 1.944 1.54 1.65 2.094 1.8 5.66 1.56 1.426-.1 2.856.47 3.83 1.51 2.283 2.45 19.565 2.5 24.1.07 1.643-.88 3.414-1.6 3.938-1.6.523 0 1.694-.69 2.602-1.53 1.992-1.84 7.444-3.46 8.093-2.41 1.11 1.78 1.96.43 1.96-3.1 0-2.11.51-5.62 1.13-7.8s1.74-6.14 2.48-8.78c.74-2.64 1.62-5.16 1.96-5.6 2.23-2.91 1.52-6.8-1.23-6.8-1.95 0-5.92 5.05-5.92 7.54 0 .64-.67 1.64-1.48 2.21-.81.57-1.74 1.86-2.06 2.87-.99 3.14-4.05 5.45-12.59 9.47l-8.26 3.9-11.11-.07c-9.03-.05-11.28-.3-12.01-1.3-.49-.67-2.03-1.48-3.42-1.78-1.39-.31-2.72-1.07-2.96-1.71-.24-.63-.93-1.15-1.54-1.15-1.31 0-10.95-9.47-10.95-10.75 0-.49-.72-1.51-1.6-2.27-.89-.76-1.6-2.36-1.6-3.6 0-1.23-.61-3.1-1.35-4.16-.74-1.06-1.55-3.18-1.8-4.71-.84-5.16-2.45-3.97-2.45 1.81m217.05 38.47c.01 2.64.16 3.62.33 2.18.18-1.44.18-3.6 0-4.8-.18-1.2-.33-.03-.32 2.61m-3.85 14.06c-.31 2.31-1.04 4.24-1.68 4.49-.61.24-1.35 1.86-1.63 3.61-.28 1.75-.97 3.36-1.54 3.58-.56.22-1.43 1.36-1.91 2.53-1.41 3.38-3.41 6.87-4.45 7.74-1.59 1.33-2.06 3.6-.75 3.6.65 0 1.18-.72 1.18-1.6 0-.88.5-1.6 1.11-1.6s1.54-1.06 2.07-2.35c.53-1.29 1.48-2.54 2.1-2.78.62-.24 1.12-1.27 1.12-2.28 0-1.02.72-2.47 1.6-3.22.88-.76 1.65-2.28 1.7-3.38.17-3.32.26-3.64 1.26-4.26 1.28-.79 2.25-7 1.2-7.65-.48-.3-1.03 1.13-1.37 3.55m-102.14 49c.72.91.79 1.4.2 1.4-.49 0-.9.54-.9 1.2 0 .66.32 1.2.71 1.2.79 0 2.9-2.33 2.41-2.65-.17-.12-1.03-.74-1.91-1.38-1.48-1.09-1.51-1.07-.5.22m-11.01 2.35c-.63 1.01-1.26 1.34-1.57.84-1.07-1.74-3.71-1.48-3.97.39-.14.99-.97 2.3-1.85 2.91-1.55 1.09-1.54 1.16.78 2.81 3.85 2.74 5.35 1.95 6.91-3.66.27-.96 1.14-1.86 1.93-2 1.34-.23 1.35-.35.13-1.61-1.23-1.28-1.37-1.26-2.35.31m15.11-.156c.56 1.044 1.61 1.57 3.02 1.51 1.36-.06 1.65-.23.77-.46-.77-.21-1.4-.88-1.4-1.51s-.73-1.14-1.63-1.14c-1.38 0-1.49.24-.77 1.6m15.2 6.4c.47.88 1.05 1.6 1.28 1.6.23 0 .15-.45-.18-1-.46-.76-.32-.79.55-.12 1.29.99 11.88 1.57 10.91.6-.33-.335-1.83-.53-3.32-.43-1.49.1-2.97-.24-3.29-.76-.37-.59-.24-.73.34-.37.51.313.92.19.92-.278 0-.48-1.73-.85-4.03-.85-3.78 0-3.97.09-3.17 1.6M8 390.15c0 .65.687 1.37 1.526 1.59.84.216 1.706 1.083 1.925 1.92.29 1.09 1.12 1.53 2.85 1.53 1.63 0 2.74.54 3.31 1.6.76 1.41 1.68 1.6 7.63 1.6H32v-3.07c0-4.39-2.25-6.39-5.088-4.53-2.326 1.52-10.21.98-12.015-.82-1.48-1.48-6.897-1.35-6.897.17"/>
    <path fill="#8492a5" d="M143.866 103.317c-.23 1.626-.668 1.86-3.214 1.713-2.454-.142-2.99.113-3.2 1.518-.14.93-.944 2.085-1.79 2.57-2.752 1.58-5.262 3.948-5.262 4.968 0 .548-.63 1.12-1.4 1.27-1.013.195-1.4 1.04-1.4 3.057 0 2.462-.263 2.817-2.252 3.045l-2.252.258.252 29.903c.292 34.69-.22 32.67 7.64 30.11 2.977-.97 5.9-1.76 6.498-1.75.63 0 .895-.49.633-1.17-.25-.65-.51-13.06-.58-27.58l-.12-26.4 2.4-3.04c4.53-5.72 8.51-5.84 140.17-4.19 77.73.97 79.16 1.06 82.45 4.91l2.28 2.66.03 16c.01 8.8-.21 21.15-.5 27.45l-.53 11.45-2.87 1.48c-1.58.81-4.3 2.95-6.04 4.75-1.74 1.79-3.78 3.27-4.54 3.27-1.57 0-5.59 2.36-10.54 6.19-1.85 1.43-4.8 3.28-6.56 4.11-1.76.83-4.63 2.99-6.37 4.8-1.8 1.87-3.91 3.28-4.9 3.28-.96 0-2.21.57-2.79 1.26-.58.7-2.69 2.1-4.7 3.12-2.01 1.02-4.34 2.61-5.18 3.54-.84.92-2.33 1.68-3.3 1.68-.98 0-2.25.56-2.83 1.26-.57.69-2.51 1.99-4.3 2.89-1.79.89-4.16 2.47-5.26 3.5-1.1 1.02-3.27 2.4-4.82 3.04-1.55.65-3.53 1.97-4.4 2.95-.87.97-3.03 2.46-4.79 3.3-6.95 3.34-8.99 4.64-12.14 7.79-1.8 1.8-4.49 3.79-5.98 4.41-1.49.62-3.42 1.92-4.29 2.88-.88.96-3.21 2.57-5.19 3.58s-4.29 2.58-5.13 3.51c-.84.93-2.33 1.68-3.3 1.68-.98 0-2.25.56-2.83 1.26-1.5 1.81-6.76 4.34-9.03 4.34h-1.94l-.31-14.6c-.24-11.51-.59-15.15-1.62-17.19-.72-1.43-1.57-3.75-1.88-5.17-.51-2.33-2.56-7.09-4.39-10.24-4.22-7.23-6.14-9.98-10.22-14.64-7.6-8.66-24.88-20.55-29.91-20.57-.58 0-2.1-.55-3.39-1.23-1.29-.68-5.25-1.53-8.8-1.91-3.56-.38-7.09-.95-7.86-1.26-1.06-.43-1.4-.19-1.4 1.01 0 1.37.74 1.65 5.71 2.14 3.14.31 7 1.25 8.58 2.1 1.58.85 3.37 1.54 3.99 1.54 1.26 0 4.52 1.85 12.2 6.94C200.73 197.72 212.6 212 208 212c-.44 0-.8-.372-.8-.827 0-1.08-10.156-10.6-12.102-11.347-.824-.316-1.498-.886-1.498-1.266 0-.668-9.9-5.848-16.342-8.55-1.728-.726-5.814-1.62-9.08-1.986-3.267-.366-6.335-1.06-6.82-1.545-.482-.49-2.876-.86-5.318-.82-4.712.06-4.68.3.16 1.11 1.692.28 3 .96 3 1.55 0 .7 1.542 1.19 4.6 1.47 7.125.64 21.003 7.26 26.284 12.52.926.92 1.95 1.68 2.273 1.68 2.88 0 12.82 12.09 16.754 20.37 9.92 20.9 7.27 42.75-7.46 61.43-2.65 3.37-5.62 6.55-6.59 7.06-.96.51-2.14 1.25-2.61 1.64-.46.38-2.29 1.77-4.05 3.07-1.76 1.3-3.74 2.84-4.4 3.42-1.11.97-6.08 3.47-12.8 6.43-12.56 5.54-41.96 1.8-50.25-6.4-.58-.58-1.38-1.05-1.77-1.05-.92 0-11.97-11.26-11.97-12.2 0-.4-1.39-2.4-3.09-4.46-13.2-16-15.63-39.2-6.12-58.34 1.96-3.94 4.11-7.62 4.79-8.18.68-.56 1.23-1.52 1.23-2.12 0-.61.58-1.1 1.28-1.1.7 0 1.47-.72 1.7-1.6.23-.88.74-1.6 1.13-1.6.39 0 .71-.36.71-.8 0-5.8-10.81 10.05-15.28 22.4-2.44 6.74-2.74 32.16-.43 36.4.72 1.32 1.32 2.94 1.33 3.6.02 1.38 6.29 14.25 7.8 16.02.56.65 2.46 3.05 4.24 5.34 4.53 5.83 16.98 15.66 21.18 16.71 1.09.27 1.98.81 1.98 1.21 0 1.19-5.4.79-6.69-.49-.66-.66-1.67-1.2-2.26-1.21-1.27-.01-10.17-5.71-14.93-9.58-4.64-3.77-11.49-12.27-14.53-18.04-1.37-2.61-2.8-5.12-3.18-5.57-.37-.45-.94-1.9-1.27-3.22-.32-1.32-1.12-3.22-1.77-4.22-.65-1-1.36-4.42-1.57-7.6-.22-3.22-.88-6.33-1.49-7.04-1.37-1.58-1.62-6.67-.49-10.35.47-1.53 1.07-4.85 1.33-7.37.26-2.52.98-5.76 1.59-7.2.62-1.44 1.72-4.24 2.46-6.22.74-1.98 2.27-5.44 3.4-7.69 2.84-5.66 2.49-5.91-8.29-5.91H72.7L70 212.1c-1.485 1.4-4.064 4.55-5.733 7-10.336 15.17-29.346 17.17-41.48 4.375-18.94-19.96 2.45-52.27 28.16-42.53 5.17 1.95 13.314 9.25 14.732 13.19.44 1.23 2.31 3.37 4.17 4.76l3.36 2.53 12.48.272c13.19.29 12.42.45 17.35-3.72 2.46-2.087 5.71-9.21 4.2-9.21-.4 0-.87-.45-1.06-1-.19-.55-.27-.44-.18.25.16 1.1-1.3 1.21-12.07.91l-12.25-.343-.52 2.09c-.62 2.49-1.64 2.704-2.35.49-.28-.88-1.05-1.6-1.72-1.6-.95 0-1.18-.85-1.04-3.8.27-5.795.26-5.8-3.23-5.8-2.25 0-3.2-.34-3.2-1.147 0-.63-.63-1.35-1.4-1.59-1.01-.32-1.4-1.29-1.4-3.46v-3.01l-4.6.27c-3.81.22-4.6.045-4.6-1.02 0-.71-.85-1.613-1.89-2.01-1.04-.394-2.09-1.465-2.33-2.38-.62-2.35-2.99-2.15-2.99.254 0 1.84-1.73 3.29-2.73 2.3-.27-.26-.48-1.32-.48-2.34 0-2.84-10.15-2.9-10.55-.07-.24 1.7-.58 1.79-6.46 1.65-6.08-.15-6.2-.11-6.2 1.8 0 1.21-.46 1.94-1.23 1.94-.68 0-1.44.54-1.69 1.2-.65 1.7-1.63 1.49-2.14-.46-.84-3.22-4.19-1.68-3.92 1.8.23 2.97-1.9 6.16-4.87 7.3-.66.26-1.44 1.54-1.73 2.85-.29 1.31-1.04 2.59-1.68 2.83-.7.27-1.15 1.55-1.15 3.27 0 2.52-.23 2.83-2.11 2.83-2.01 0-2.08.15-1.59 3.22.39 2.48.23 3.33-.7 3.69-1.72.66-1.73 9.52-.02 10.18.67.25 1.2 1.45 1.2 2.68 0 1.22.72 3.3 1.6 4.62.87 1.32 1.59 3.39 1.59 4.6 0 1.22.73 2.83 1.61 3.58s1.6 1.77 1.6 2.27c0 1.29 9.65 10.75 10.96 10.75.6 0 1.29.52 1.54 1.15.24.64 1.57 1.4 2.96 1.71 1.38.3 2.92 1.11 3.42 1.78.73 1 2.98 1.24 12.01 1.29l11.11.07 8.26-3.9c8.53-4.02 11.59-6.33 12.59-9.47.31-1 1.24-2.3 2.06-2.87.81-.58 1.48-1.57 1.48-2.22 0-2.49 3.97-7.54 5.93-7.54 2.75 0 3.45 3.89 1.23 6.8-.34.44-1.22 2.96-1.96 5.6-.74 2.64-1.85 6.58-2.47 8.77-1.95 6.86-1.59 27.08.47 26.43 1.52-.49 1.6-.15 1.6 7.04 0 6.26.24 7.74 1.4 8.62 1.19.9 1.25.89.4-.06-1.34-1.49-1.26-2.4.2-2.4.9 0 1.2.98 1.2 4 0 3.47.21 4 1.6 4 1.03 0 1.6.54 1.6 1.52 0 1.63 1.48 2.49 4.31 2.49 2.09 0 4.66 2.63 8.79 9 3.05 4.7 3.28 7.52.41 4.92-1.96-1.77-2.73-.95-2.43 2.56.45 5.29-3.53 6.85-7.34 2.87-2.78-2.89-1.56-5.85 3.17-7.7 1.33-.52 1.24-.77-.92-2.53-2.6-2.11-7.39-2.43-6.98-.46.12.59-.16.83-.62.55-.46-.28-.65-.82-.42-1.19.23-.37.11-.8-.28-.943-.38-.15-.96-1.12-1.29-2.17-.44-1.42-.34-1.74.42-1.28.66.4.81.3.44-.3-.31-.51-1.235-.92-2.05-.92-1.776 0-1.67 1.82.23 4.04 2.43 2.83.67 7.15-2.916 7.15-3.67 0-1 5.87 5.79 12.725 6.67 6.74 8.81 7.2 9.82 2.08.33-1.66 2.97-1.82 3.96-.24.28.46 1.03.04 1.723-.94 1.124-1.61 1.284-1.64 2-.37.97 1.75 8.18 2.28 8.18.61 0-.58.4-1.05.895-1.05.6 0 .55-.46-.16-1.4-.9-1.19-.89-1.25.06-.4.62.55 2.31 1 3.76 1 1.8 0 2.64.37 2.64 1.19 0 .77 1.13 1.37 3.2 1.7 1.76.28 3.2.96 3.2 1.51 0 1.22 3.59 1.99 9.3 1.99 2.49 0 4.3.353 4.3.844 0 .466-.42.59-.93.277-.58-.36-.71-.22-.34.37.32.52 1.724.92 3.12.88 1.4-.04 3.56.09 4.8.28 1.77.28 2.4-.03 2.93-1.42.54-1.42 1.15-1.7 3.11-1.41 1.45.22 3.83-.29 5.87-1.25 1.886-.88 5.86-1.78 8.83-1.99 3-.21 6.275-.96 7.37-1.68 1.086-.71 2.516-1.29 3.18-1.29 1.46 0 10.84-4.68 12.31-6.15.58-.57 1.45-1.05 1.92-1.05 4.95 0 23.01-21.08 28.105-32.8 1.24-2.86 2.77-6.34 3.39-7.73.624-1.39 1.37-4.74 1.65-7.45.61-5.79 1.844-4.94 1.86 1.29.02 6.75-5.61 6.32 67.87 5.19 71.74-1.107 67.81-.78 71.66-5.95 1.68-2.246 1.69-2.545 1.92-70.8l.23-68.54-1.84-2.015c-5.075-5.58-5.44-5.63-41.95-6.16-31.42-.45-33.08-.55-33.08-1.95 0-.81.54-1.47 1.2-1.47.75 0 1.2-.75 1.2-2 0-1.765.35-2.004 3-2.05 2.41-.04 2.68-.19 1.4-.74-1.33-.58-1.13-.72 1.2-.85l2.8-.16-2.8-.59c-1.54-.33-2.26-.69-1.6-.82 5.42-1.03-19.83-1.68-80.53-2.08l-71.34-.47-.265 1.88m-6.47 86.05c.99.19 2.61.19 3.6 0 .99-.19.18-.35-1.8-.35s-2.79.15-1.8.34m74.19 25.85c-.45.725-.75.703-1.24-.09-.85-1.367-.02-2.71 1.022-1.665.44.44.54 1.23.21 1.75m5.79 40.17c-.17 1.44-.32.45-.33-2.19 0-2.64.14-3.81.33-2.61.18 1.2.186 3.36.01 4.8m-80.556 2.98c-.61.84-1.88 1.73-2.83 1.96-10.73 2.7-7.13 15.45 4.21 14.93 12.71-.59 19.25-.37 20.52.68 1.94 1.61 1.556 2.34-1.52 2.915-1.54.29-2.8.84-2.8 1.23s-.53.71-1.18.71c-.72 0-1 .47-.72 1.2.34.89 1.76 1.2 5.49 1.2 4.66 0 17.07 2.1 23.59 3.99 3.73 1.08 3.62 1.11 5.23-1.35 1.69-2.58 1.97-5.79.65-7.44-.53-.66-1-1.56-1.05-2-.05-.44-.78-1.7-1.62-2.8-.84-1.1-1.535-2.28-1.54-2.63 0-.345-.56-1.18-1.23-1.86-.68-.673-1.23-1.72-1.23-2.32 0-1.27-2.51-1.14-14.8.76-18.24 2.82-23.455 1.456-26.66-6.992-1.32-3.47-1.49-3.62-2.52-2.19m78.03 9.11c-.29 1.8-.96 3.54-1.49 3.87-1 .62-1.1.94-1.265 4.26-.05 1.1-.82 2.62-1.7 3.38-.88.75-1.6 2.2-1.6 3.216s-.504 2.04-1.124 2.28c-.62.23-1.56 1.48-2.1 2.77-.53 1.29-1.46 2.34-2.07 2.34s-1.11.72-1.11 1.6c0 .88-.53 1.6-1.17 1.6-1.32 0-.84-2.265.75-3.6 1.03-.87 3.04-4.35 4.44-7.74.49-1.174 1.35-2.31 1.92-2.53.563-.22 1.26-1.83 1.54-3.58s1.01-3.37 1.63-3.61c.64-.244 1.36-2.17 1.68-4.49.33-2.42.88-3.85 1.37-3.55.48.29.59 1.84.283 3.78M86.4 314.9c0 1.11-.202 1.142-1.4.224-.77-.59-1.55-1.173-1.733-1.298-.184-.124.446-.226 1.4-.226 1.065 0 1.733.5 1.733 1.297m51.737-.768c-.61.61-6.154.52-6.784-.11-.23-.23 1.32-.42 3.447-.42s3.628.23 3.337.53M4.8 371.93c0 .19.63 1.086 1.4 1.993 1.343 1.582 1.34 1.603-.058.517-1.386-1.076-1.45-.834-1.27 4.814.237 7.415.618 8.96 2.075 8.4.63-.24.918-.083.647.355-.468.75 1.63 1.13 4.612.83.773-.08 1.925.37 2.56 1.01 1.916 1.91 9.742 2.52 12.154.94l2.03-1.33-1.838-2.14c-7.632-8.85-15.34-15.19-18.795-15.47-1.934-.16-3.517-.13-3.517.06m12.77 7.72c3.59 4.75 4.063 6.75 1.603 6.75-1.65 0-7.173-4.89-7.173-6.35 0-.44-.758-1.5-1.685-2.37-2.146-2-1.464-3.13 1.62-2.67 1.765.26 3.26 1.48 5.634 4.63"/>
    <path fill="#4e88e3" d="M195.403 208.6c12.298 16.18 10.308 25.94-7.003 34.344-1.76.854-3.92 1.96-4.8 2.46-3.39 1.917-16.42 5.8-19.728 5.876l-3.472.08 3.003.71c7.614 1.793 23 12.73 17.91 12.73-.67 0-1.475.416-1.79.924-.353.572-.22.706.353.352.54-.333.924-.076.924.62 0 .654.476 1.665 1.057 2.247.582.58 1.137 1.417 1.234 1.857.1.44.87 1.7 1.71 2.8.85 1.1 1.46 2.215 1.37 2.477-.09.262.36 1.114 1.01 1.892 1.62 1.95 1.52 4.34-.32 7.57-.86 1.51-1.22 2.86-.81 3 3.67 1.24 5.97 3.54 5.12 5.12-1.1 2.05-.54 2.79.96 1.29.61-.61 1.92-1.55 2.91-2.07 5.62-3.01 15.32-19.12 18.48-30.71 5-18.33-2.7-42.91-17.39-55.48-4.52-3.87-4.7-3.37-.7 1.89m-91.41 6.11c0 .6-.55 1.56-1.23 2.12-4.63 3.85-10.76 22.48-10.76 32.77-.01 11.25 5.54 26.45 12.51 34.26 3.79 4.25 4.63 4.01 8.29-2.4 5.11-8.95 10.07-13.67 12.87-12.22l2.34 1.2v-3.16c0-3.32 2.06-5.76 5.87-6.96 2.44-.77 4.42-3.28 4.99-6.34.48-2.57.58-2.63 6.57-3.52 8.66-1.29 8.4-1.83-1.33-2.8-2.37-.24-4.96-1.02-5.76-1.75-1.6-1.45-9.93-.42-14.42 1.78-1.15.56-4.71 1.57-7.91 2.24l-5.81 1.21-4.69-4.06c-2.58-2.24-4.91-4.97-5.19-6.07-.81-3.24.24-14.03 1.62-16.63 1.51-2.84 4.49-9.72 4.49-10.36 0-.25-.54-.45-1.2-.45-.66 0-1.2.49-1.2 1.1m17.6 105.6c0 .16.54.75 1.2 1.29.98.81 1.2.76 1.2-.3 0-.72-.54-1.3-1.2-1.3-.66 0-1.2.13-1.2.3"/>
    <path fill="#d4d9e0" d="M145.345 117.856c-1.975.55-3.916 1.94-5.49 3.925l-2.432 3.08.122 26.4c.067 14.52.325 26.93.574 27.58.28.74-.03 1.18-.83 1.18-.71 0-3.46.76-6.12 1.68-5.76 1.99-6.98 1.69-7.32-1.82-.32-3.26-2.92-3.98-5.41-1.49-.91.91-2.21 1.65-2.89 1.65-.74 0-1.14.57-1 1.4.17 1.06-.41 1.46-2.37 1.65-1.43.14-2.61.68-2.61 1.2-.01.57-.33.47-.79-.25-.6-.93-.78-.7-.79 1.05-.01 1.29-.36 2.04-.82 1.76-.44-.27-.8.07-.8.75 0 .69.35 1.25.77 1.25 1.56 0-1.63 7.08-4.15 9.21-4.93 4.17-4.16 4.01-17.35 3.72l-12.48-.27-3.37-2.53c-1.85-1.39-3.73-3.53-4.17-4.76-1.42-3.94-9.56-11.24-14.74-13.2-25.71-9.73-47.1 22.57-28.17 42.54 12.14 12.79 31.15 10.79 41.47-4.36 1.67-2.45 4.24-5.6 5.73-7l2.69-2.54h9.22c10.78 0 11.13.25 8.29 5.91-1.12 2.25-2.65 5.72-3.39 7.7-.74 1.98-1.84 4.78-2.45 6.22-.62 1.44-1.33 4.68-1.59 7.2-.27 2.52-.86 5.84-1.33 7.37-1.13 3.68-.88 8.77.49 10.35.61.71 1.27 3.81 1.49 7.04.21 3.18.92 6.6 1.57 7.6.65 1.01 1.45 2.9 1.77 4.22.32 1.32.89 2.77 1.27 3.22.38.45 1.81 2.96 3.18 5.57 3.04 5.78 9.88 14.28 14.53 18.04 4.77 3.86 13.66 9.57 14.94 9.57.58 0 1.59.55 2.25 1.21 1.29 1.29 6.69 1.68 6.69.49 0-.39-.89-.94-1.98-1.21-4.19-1.05-16.65-10.88-21.18-16.72-1.78-2.28-3.68-4.69-4.24-5.34-1.51-1.76-7.77-14.64-7.79-16.02-.01-.66-.61-2.28-1.33-3.6-2.31-4.23-2-29.66.44-36.4 3.87-10.69 11.73-23.2 14.57-23.2 1.13 0 .82 2.18-.49 3.49-.66.66-1.2 1.42-1.2 1.7 0 .68-2.92 7.45-4.5 10.41-1.38 2.61-2.44 13.4-1.62 16.63.27 1.1 2.61 3.83 5.19 6.07l4.69 4.07 5.81-1.21c3.2-.67 6.76-1.67 7.91-2.24 4.496-2.2 12.82-3.23 14.426-1.78.8.72 3.39 1.51 5.76 1.74 9.75.97 10 1.51 1.3 2.8l-6.12.91-.5 3.37c-1.25 8.34 4.06 14.05 13.08 14.04 10.27-.01 30.866-3.44 30.34-5.06-.88-2.69-13.23-10.35-18.78-11.66l-3.01-.71 3.48-.08c3.3-.07 16.33-3.96 19.72-5.87.88-.5 3.04-1.6 4.8-2.46 10.88-5.28 16.3-12.16 14.81-18.81-3.64-16.27-22.62-32.81-39.41-34.33-3.055-.28-4.6-.77-4.6-1.47 0-.6-1.305-1.27-3-1.56-4.84-.81-4.87-1.04-.16-1.1 2.445-.04 4.84.33 5.32.82.49.48 3.55 1.18 6.82 1.54 3.27.37 7.353 1.26 9.08 1.99 6.443 2.7 16.343 7.88 16.343 8.55 0 .38.676.95 1.5 1.27 1.946.74 12.1 10.27 12.1 11.348 0 .46.36.83.8.83 4.6 0-7.273-14.28-17.504-21.06-7.67-5.086-10.93-6.94-12.2-6.94-.61 0-2.41-.69-3.99-1.54-1.58-.85-5.44-1.79-8.58-2.1-4.97-.49-5.71-.77-5.71-2.15 0-1.19.35-1.44 1.4-1.01.77.32 4.31.89 7.86 1.26 3.55.38 7.51 1.24 8.8 1.91 1.29.67 2.81 1.23 3.38 1.23 5.04.026 22.32 11.91 29.91 20.57 4.08 4.66 6.01 7.41 10.22 14.636 1.84 3.15 3.88 7.915 4.396 10.24.31 1.42 1.16 3.74 1.88 5.17 1.04 2.04 1.38 5.68 1.62 17.19l.31 14.6h1.95c2.27 0 7.53-2.525 9.03-4.34.58-.69 1.85-1.26 2.824-1.26.98 0 2.46-.76 3.3-1.685.84-.93 3.14-2.51 5.12-3.515 1.98-1.01 4.32-2.62 5.19-3.58.87-.97 2.807-2.26 4.29-2.89 1.49-.62 4.188-2.6 5.99-4.4 3.15-3.15 5.19-4.457 12.14-7.79 1.76-.845 3.917-2.33 4.79-3.3.87-.98 2.85-2.3 4.4-2.95 1.55-.646 3.72-2.017 4.82-3.045 1.1-1.03 3.46-2.61 5.25-3.5 1.79-.9 3.72-2.2 4.295-2.89.57-.7 1.84-1.26 2.82-1.26.97 0 2.46-.76 3.3-1.69.83-.93 3.16-2.52 5.17-3.54s4.12-2.42 4.7-3.114c.57-.7 1.83-1.26 2.78-1.26.99 0 3.1-1.42 4.9-3.29 1.74-1.81 4.6-3.97 6.36-4.8 1.76-.84 4.71-2.69 6.56-4.12 4.95-3.83 8.97-6.2 10.536-6.2.76 0 2.8-1.47 4.54-3.26 1.74-1.8 4.45-3.94 6.03-4.75l2.87-1.49.52-11.45c.29-6.29.51-18.64.5-27.44l-.03-16-2.28-2.663c-2.05-2.39-2.88-2.73-8.17-3.35-15.03-1.77-203.08-2.96-208.94-1.32M103.6 188.3c-1.416 1.037-1.383 1.1.585 1.1 1.443 0 1.958-.34 1.666-1.1-.23-.605-.49-1.1-.58-1.1-.09 0-.84.495-1.66 1.1m37.4 1.065c-.99.19-2.61.19-3.6 0-.99-.19-.18-.347 1.8-.347s2.79.156 1.8.347m69.15 24.003c-.24.39-.14 1.18.21 1.756.49.795.79.817 1.24.092.33-.526.23-1.315-.21-1.755-.44-.44-.99-.48-1.23-.09M77.8 266.13c-.55.222-.994 1.363-.988 2.537.01 1.555.205 1.83.723 1.01.513-.81.677-.55.588.924-.068 1.13-.393 1.88-.723 1.68-1.113-.68-.61 1.2.657 2.47 1.865 1.86 1.943 1.7 1.943-3.95 0-5.1-.18-5.48-2.2-4.67m41.67 6.16c-2.128 2.35-5.13 6.48-6.67 9.19s-3.43 5.13-4.2 5.38-1.4.73-1.4 1.06c0 .87 11.11 12.09 11.97 12.09.394 0 1.19.47 1.773 1.05 8.297 8.2 37.69 11.94 50.257 6.4 6.71-2.96 11.687-5.46 12.8-6.43.66-.57 2.197-1.79 3.416-2.69 4.336-3.23 5.048-6.05 2.004-7.92-5.107-3.14-22.782-7.19-31.42-7.19-3.732 0-5.148-.31-5.49-1.2-.28-.73 0-1.2.715-1.2.646 0 1.175-.32 1.175-.71 0-.39 1.26-.95 2.8-1.23 3.08-.58 3.46-1.31 1.522-2.92-1.267-1.05-7.797-1.26-20.533-.68-5.26.24-5.5.17-8.4-2.61-5.44-5.19-5.92-5.21-10.32-.36m-38.67 7.66c0 .42.38.99.85 1.28.47.29.66 1.03.42 1.65-.24.62-.08 1.12.34 1.12.42 0 .77-1.08.77-2.4 0-1.6-.4-2.4-1.2-2.4-.66 0-1.2.34-1.2.76m2.75 9.23c.12 1.09-.1 1.79-.47 1.56-.38-.23-.69-.02-.69.47s-.37.67-.82.39c-.45-.27-.57-.93-.28-1.44.38-.68.27-.7-.42-.08-1.14 1.05-.34 3.54 1.15 3.54.59 0 1.32.42 1.64.93.37.6.22.7-.44.3-.75-.47-.86-.16-.44 1.17.35 1.12.2 2.03-.4 2.4-.7.43-.72.76-.09 1.15.48.3.88.17.88-.3 0-.46.38-.85.84-.85.46 0 .64.34.38.75s-.09.98.37 1.26c.46.29.73.04.61-.54-.41-1.97 4.38-1.65 6.98.46 2.17 1.77 2.26 2.02.92 2.54-4.8 1.88-6.02 4.98-3.08 7.8 3.97 3.81 7.69 2.29 7.24-2.96-.3-3.52.47-4.33 2.43-2.56 2.87 2.6 2.64-.22-.41-4.92-4.13-6.38-6.7-9.01-8.79-9.01-2.84 0-4.32-.85-4.32-2.49 0-.96-.56-1.51-1.53-1.51-1.15 0-1.48.49-1.31 1.98m-.29 24.65c.18.13.96.71 1.73 1.3 1.2.92 1.4.89 1.4-.23 0-.8-.67-1.3-1.73-1.3-.95 0-1.58.11-1.4.23m48.09.2c.63.63 6.17.72 6.78.11.29-.29-1.21-.53-3.34-.53s-3.68.19-3.45.42m-85.16 27.38c-31.04 30.91-30.42 30.05-24.35 34.03 5.03 3.3 3.65 4.34 32.65-24.54 29.62-29.5 28.67-28.17 23.88-33.29-4.01-4.29-3.82-4.43-32.19 23.82m-37.04 33.9c-.25.4.31 1.44 1.23 2.3.92.86 1.68 1.93 1.68 2.37 0 1.46 5.52 6.34 7.17 6.34 2.46 0 1.98-1.99-1.61-6.75-3.15-4.17-7.27-6.23-8.49-4.25"/>
    <path fill="#00f" d="M113.6 180.714c0 .54-.416.724-.924.41-.546-.338-.707-.22-.395.284.3.47.08 1.038-.47 1.26-.62.253-.66.43-.1.47 1.17.08 3.09-2.22 2.41-2.89-.28-.283-.51-.073-.51.466m6 140.886c.8.88 2.17 1.6 3.05 1.6 1.55 0 1.56-.05.15-1.6-.79-.88-2.16-1.6-3.04-1.6-1.55 0-1.55.05-.15 1.6m46.64 5.76c.75.747 1.18.747 1.92 0 .75-.747.54-.96-.96-.96-1.49 0-1.7.213-.96.96"/>
  </g>
</svg>
