<svg xmlns="http://www.w3.org/2000/svg" width="256" height="271" preserveAspectRatio="xMidYMid">
	<g fill="#E92200">
		<path d="M23.22 60.23c7.87 2.03 39.2 11.5 58 17.23 18.8 5.74 32.9 9.45 43.82 12.5 11.03 3.16 10.2 11.78 1.58 11.04-8.62-.84-18.8-5.47-29-9.47-10.2-3.87-42.26-13.24-58.76-18.8-16.38-5.47-20.38-5.47-22.68-8.62-2.32-3-.84-5.9 7.04-3.8"/>
		<path d="M140.8 94.7c7.03-.75 7.77 6.3 6.2 10.2-1.57 3.88-9.35 5.45-10.92 1.57-2.42-5.48-2.42-10.95 4.7-11.78m92.4-56.5c-4.64 4-18.8 12.6-28.9 19.6-10.2 7-29 19.5-34.58 22.7-5.46 3.1-12.5 7-17.23 10.9-4.64 4-3.06 11 4 8.6 7.02-2.3 14.07-6.2 18.8-11 4.62-4.8 9.35-7.9 14.07-11 4.73-3.2 40.77-29.9 47.82-34.6 7.04-7.8.74-9.4-4-5.5m18.1-13.2c3.87 0 5.45 8.6 1.56 10.9-3.9 2.3-9.45 2.3-9.45-5.5 0-7.9 3.98-5.5 7.88-5.5M248.93 41c3.06 0 4.63 6.37 3.9 11.1-.84 4.64.73 35.2 1.56 46.15.7 11 .7 15.74-.9 19.63-1.6 3.9 0 10.2 0 20.4s-1.6 23.44-2.3 29c-.9 5.46-1.6 9.35-4.8 8.6-3.2-.8-3.2-4.7-3.2-11 0-6.2 0-39.2.8-46.97.7-7.9.7-11 .7-17.2V51.6c0-6.3.8-10.2 4-10.2m-2.5 141.04c4.7-.75 6.3 7.87 3.9 10.2-2.4 2.4-7.8 1.56-9.4-2.33-1.6-3.8.7-7 5.5-7.8M6.5 53.2c4.3-.65 5.68 7.05 2.16 9.82-3.55 2.87-8.46.73-7.7-3.5.62-4.2 1.4-5.58 5.53-6.33m10-6.3c9.9-4.9 30.2-17.6 35.1-19 4.9-1.4 14-7.1 17.5-9.8C72.6 15.3 83.8 8.9 86 7.5c2.2-1.4 12 0 3.58 5.6-8.43 5.6-20.36 12.6-28.8 17.5-8.44 5-32.35 17.6-37.25 19.7-4.92 2.1-16.9 1.4-6.95-3.58M100.05.4c1.4-.63 5.63 2.9 3.5 5.67-2.1 2.76-4.9 4.9-7.78 0-2.8-4.9 2.83-4.9 4.23-5.65m14.1.74c9.1 0 31.6 3.5 38.68 5.65 6.95 2.1 21.04 4.2 23.8 4.9 2.88.7 12.7.7 14.83 1.4 2.1.7 8.5 3.6 21.1 4.9 12.7 1.4 20.4 2.8 24 4.2 3.5 1.5 1.4 9.9-4.3 8.5-5.5-1.4-28.7-4.1-34.3-4.9-5.6-.6-16.8-4.9-23.1-5.5-6.4-.7-22.5-4.3-35.9-5.6-13.3-1.4-22.5-4.1-26-4.9-3.5-.7-7.7-8.4 1.5-8.4M4.5 76.4c0-4.9 7.7-7.05 8.48-.65.65 6.3 1.4 16.8 2.04 25.3.74 8.4 1.48 16.1 2.13 21.7.75 5.5 4.27 19.6 4.93 23.9.73 4.1 1.38 12.6 1.38 17.5s1.5 12 .75 15.5-4.2 12.6-6.3 2.1c-2.1-10.6-.7-23.9-2.1-27.4-1.3-3.6-4.2-11.2-4.2-16.9 0-5.7-2.7-20.4-3.4-23.9-.7-3.5-3.5-32.3-3.5-37.2M20 195.15c.8-2.9 6.4-4.9 8.5-1.4 2.2 3.5 1.5 9.1-3.4 9.8-5 .66-5.6-5.65-5-8.43m11.3-9.2c6.3-6.3 24.6-16.1 35.2-25.3 10.6-9.1 29.5-21.8 33-25.3s12.7-.67 4.9 5.64c-7.7 6.3-25.9 19.64-33.7 25.95-7.67 6.4-28.7 20.4-32.96 24.7-4.2 4.2-12.62.7-6.32-5.6m82.2-62.5c2.8.7 2.8 6.4 0 7.8s-7.7.6-7-3.5c.78-4.3 4.3-4.9 7.08-4.3M41 202.2c9.83 2.8 31.6 16.86 38.64 19.63 7.04 2.8 20.4 9.9 26.7 13.4 6.28 3.5 21.76 10.6 26.02 12.6 4.16 2.2 7.7 2.9 9.82 5 2.13 2.1-.73 9.9-6.3 7-5.65-2.76-27.43-14-30.94-16.1-3.5-2.13-16.87-9.2-21.13-11.96-4.1-2.8-9.8-3.5-15.3-6.3-5.6-2.75-25.3-13.3-31.7-16.84-6.3-3.5-5.5-9.18 4.3-6.3M138 116.6c-.6 6.97.78 20.3 1.5 23.84.67 3.5 3.4 18.2 2.8 28.8-.73 10.56 0 23.9 1.4 30.94 1.37 7.03 2.1 25.3 2.1 30.2 0 4.9 1.4 11.2 2.15 12.6.65 1.5 4.9 7.8 5.56-1.4.8-9.1 0-27.32.8-33 .7-5.63-.7-18.97-2.1-35.84-1.3-16.88-2.1-30.86-2.1-35.1 0-4.2 1.4-14.75-1.4-19-2.1-7.06-9.8-9.1-10.5-2.05m13.3 139c2.2-.8 9.2 4.9 6.4 11.2-2.8 6.3-7 3.5-9.8-1.4-2.9-4.9 1.4-9.2 3.5-9.9m14.9-7.1c9.1-10.6 11.2-7.7 16.1-12 4.9-4.2 24.6-19.7 31.6-26 7.1-6.4 12.7-9.9 16.9-13.3 4.3-3.58 10.6 1.62 4.3 5.5-6.3 3.9-20.4 17.7-26.02 25.3-5.6 7.6-10.6 5.7-16.9 12-6.3 6.3-9.8 11.2-13.37 12.7-3.53 1.4-6.3 3.4-9.1 5.53-2.87 2.1-12.7.73-3.5-9.8"/>
		<path d="M125.96 128.32c4.27 1.5 21.87 7.8 33.74 13.44 11.96 5.56 40.76 17.5 46.42 21.04 5.64 3.5 28.07 11.94 30.94 14.08 2.8 2.03 3.44 12.6-2.87 9.82-6.3-2.87-23.9-12.7-35.1-17.6-11.3-4.92-28.9-13.35-37.3-15.48-8.5-2.04-24.6-11.86-28.8-14.74-4.2-2.77-9.1-2.77-11.2-6.3-2.2-3.5 0-5.64 4.1-4.26m-21-109.52c1.4 8.44 2.7 17.52 2.7 24.56 0 7.04 1.4 18.25 2.1 21.78.7 3.5 2.1 15.47 1.3 17.6-.7 2.04 0 18.9 0 23.17 0 4.2 1.4 9.9-2.8 9.9-4.3 0-4.9-3.5-4.9-11.2 0-7.7-2.9-24.6-2.9-31.7 0-6.9-1.4-21.7-1.4-31.6 0-9.8-2.1-20.3-2.8-23.1-.8-2.8 7-7.7 8.4.8"/>
	</g>
</svg>
