<svg xmlns="http://www.w3.org/2000/svg" width="400" height="400">
	<g fill-rule="evenodd">
		<path fill="#62ff62" d="M174 17.6c-14.7 2.3-18 3-23.7 4.7-6 1.8-13.6 4.4-15.8 5.3L131 29c-40.4 16-76 49.6-95.2 89.7L30.2 130c-.4 1-.7 2-.7 2.7 0 .7-.4 2-.8 2.6-1 1.8-3.2 8.5-4 12.2-.4 1.6-1 4.3-1.6 6-2.3 8.7-3.8 19.8-4.4 33.3-.5 10.2.6 15.6 1.6 7.8 1.7-13.2 4.6-29.6 5.7-32 .6-1.8 2-2 2-.3 0 1.8 2.3 5.7 8.2 13.5 8 10.7 7.6 9 6.4 27.7-1.2 19.2-1 16.8-2 16.8s-6-5-10.8-11.2c-5.8-7.3-7.2-6-2 1.8 1.8 2.7 3.3 5 3.3 5.5 0 .4.4.8.7 1 .3 0 2.2 2.2 4.2 4.6l4 4.6c.4 0 .7 4 .7 8.6 0 9.2.5 11 6.4 19.5 5 7.4 7.2 23.6 3.7 27-1.3 1.4-17-17.8-18.8-23l-1.7-4.4c-.7-1.7-3.6-11.8-4.8-16.4-1.8-7.6-3.4-17-5.4-33-.3-2.6-.5-3-1-2-2 5 0 27.8 4 42.5l1.4 7.2c.2 1.3.7 3 1 4 .5 1 1.6 4 2.5 6.8 1 3 2.2 6.5 3 8 .5 1.6 1.6 4 2.3 5.6 2.6 6.4 6.3 13.5 8.4 16.7 1.2 1.8 2.2 3.5 2.2 3.8 0 .3 1.4 2.7 3.3 5.4 15.3 22.6 37 43.5 58.2 56 10.5 6.2 28.3 15 30.4 15 .4 0 1.4.2 2 .6 1 .4 4.2 1.6 7.5 2.5 3.3 1 7 2 8 2.5 2 .6 10 2.3 19.2 4 15 2.8 46.8 1.8 65.6-2 66.2-13.8 120.2-64.7 137.7-130 3.6-13.3 4.5-19.2 5.2-34.6.6-12.4-.4-19.6-1.3-10-2 20.2-4.4 29.3-7.7 29.3-2.8 0-6.5 2.7-14.6 10.6-25 24.5-28.8 31.2-25.4 46.5 1 3.8-15.7 13.6-36.5 21.7-8.6 3.3-9 3-8-4.2.5-3 1-12.3 1.4-20.6.6-16.8.3-15.8 7.3-21l3.5-2.8c.7-.8 7.8-5.6 8.4-5.6.2 0 4-1.7 8.4-4 20.4-10.2 37-22.6 47.2-35.2l4-4.8c1-1 5.4-8.6 5-9 0-.2-3.8 3.2-8 7.6-14.3 14.7-24.3 22-44.2 32-10.5 5.3-10.2 5.4-11-3-.6-8.6-4.4-11-10.7-7-2.2 1.3-22-8-28.2-13.4l-4.6-4-5.7.3c-3.2.2-9 1.3-13 2.4-4 1-8.2 2-9.5 2-2.2 0-4.8.7-10.4 2.7-11 4-22.3 30.8-18.7 44.5.5 2.2-34 1-51-1.5l-19.2-3c-3.6-.7-5.4-1.4-10.4-4-4.7-2.6-11.7-4.3-17-4.3-10.4 0-51.3-20.2-50.2-24.7l1-4.5c0-1.3.6-3 1-4s1-2.7 1.2-4l1.3-5.6L67 210c.4-3 .8-3.5 4-5 8-3.8 10.4-1.7 21.6 20 5 9.4 9.6 17.4 10.7 18 2.7 1.7 4-4 2.3-10.3-1.8-6.8-4.3-14.5-5-15.2-.3-.5-.6-1.5-.6-2.3 0-.8-.3-2-.7-2.8-1.7-3.2-4.2-10.7-3.8-11 .3-.4 4 .7 8 2.3 4 1.6 8 3 8.7 3 .7 0 1.5.2 1.8.6.2.4 1.4 1 2.6 1l8.2 2.3c35.7 10.3 91 12.7 126.4 5.6 16.3-3.3 21-4.4 28.8-7 5.8-1.7 10 1.6 10.5 8.7.4 5.2 3 15 4 14.8.4 0 6-4.7 12.3-10.2 12.2-10.4 13.2-12 13.2-18 0-9.4 1-12 4.4-14 1.8-1 5.2-3.2 7.7-4.8l5.4-3.5c2-1.2 13.5 19.5 15.4 27.7l1.3 5.5 2.2-1.6c3-2.5 4.7-8.4 4.7-17.2 0-12.4 2.3-21.4 5.7-21.4 4.3 0 13.3 14 13.4 20.7 0 2.8.3 3.5 1 2.6 2.3-3.8-.7-37.2-4.5-48-.6-2-1.2-4.4-1.2-5.4s-.4-2-.8-2.2c-.5-.3-.8-1-.8-2 0-.7-.8-3.3-1.7-5.7l-2.3-6c-.8-2-5.5-12.2-6.7-14.3-.4-1-1.8-3.4-3-5.6-13.3-25-39.8-52.8-64.3-67.2-8-4.7-9-5.2-13.6-7.5-7.2-3.6-13.2-6.2-16.7-7.4-1.8-.5-3.6-1.3-4-1.7-.4-.3-1.4-.6-2.2-.6-.7 0-2-.4-2.8-.8-12.4-7-57.2-10.7-82-6.8m58.7 13c1.8.5 5.8 1.3 8.7 1.8 2.8.5 6.2 1.2 7.6 1.6l6 1.6c17.6 4.7 32 13.8 36.6 23.2l1.6 3.6v-3c0-1.7-.8-4-2.3-6.4-1.3-2-2-4-1.8-4 1.7-1.2 31.3 20.2 31.3 22.6 0 .3-.8 1-1.8 1.3l-4 2c-2.3 1-4.8 5.4-5.6 9.5-3.5 18.8-3.7 19-9.2 19-9-.3-20.4 6.7-21.8 13.4-.5 2.2-1 5.4-1.5 7-1 4-3.4 7.3-5.8 7.6-6.4.7-13.2 4.2-22.2 11.5-4.8 3.8-6.4 4.7-8.8 4.7-1.6 0-5 .3-7.4.7-2.4.5-9.3 1-15.4 1.4-12 .6-12.3.5-9.4-3.6 6.6-9.2 12.2-24.6 12.4-34v-7.2l3-.6 10.2-2c12.5-2 21-4 24.2-6 .8-.3 2-.6 2.5-.6 1 0 7-2.7 14.8-6.7 4.8-2.4 12-8.7 15.3-13.3 2.7-3.8 4.7-11.4 2.7-10-.5.2-1 1-1 1.8 0 7-18 19-34.8 23.4-17.5 4.6-21 5.2-35.3 6l-8.2.5-7.3-6.3C196.5 82 196 82 184 88.5c-2 1-4.5 2-5.7 2-1.5 0-2.8.8-4 2.4-2 2.5-5.2 3-10 1.6-1.2-.4-4.4-1-7-1.6-2.7-.6-5.5-1.3-6.2-1.7-.7-.4-2-.8-3-.8-.8 0-2.2-.3-3-.7-.7-.4-3.5-1.5-6-2.5C111 77 103.6 61 120.6 48.5c4.3-3.2 16-9.2 18-9.2.7 0 1.5-.3 1.7-.7.2-.3 2-1 4.2-1.6l5.5-1.6c5.5-2.2 21-5 33-5.7 10.8-.7 45-.2 50 .8M187.6 36c-21.2 2.2-29 17-13 24.8 3.4 1.6 4.4 2 12.6 3.5 8.3 1.6 26 0 31.4-2.7.7-.3 1.7-.6 2.2-.6 1.5 0 8-5 9-7 1-2.7.3-3-3.2-1-10.3 5.8-32.5 6.3-46 1-6.5-2.5-7.2-4.2-2.5-6.5 13.7-6.7 40-6.3 50 .8 1.8 1.3 2.4.5 1.4-2-2.7-7.2-24-12.4-42-10.4M105 53.6c-.3.8-1 2-1.4 2.5-1.7 2.2-1 12.2 1 16.5 4 8 15.3 16.7 27 21l6.3 2.6c3 1.3 12.3 4 13.7 4 .7 0 2.4.3 3.8.7 1.3.4 4.7 1.2 7.5 1.7 4 .8 5 1.2 4.6 2.3-.3.7 1.7 5.7 4.3 11 6.8 14 11 29 9 32.3-.7 1.4-11.2.7-26.7-1.7-7-1-7.3-1.3-6-5.2 3.2-8.8.6-19.4-4.6-19.5-1.4 0-10 4.2-11 5.5-.8 1-10.2 7-13.6 8.7l-3.6 1.7-3.6-1.7c-4.8-2-5-2.7-2.2-6 2-2.3 14.7-11.3 19.8-14 3-1.5 1-3-4.4-3.5-18.4-1.7-34-16.5-40.3-38-2-7-2.2-6.6 3.5-11 12.7-10 18-13.2 16.8-10m14.7 98.6c4 1.3 7.4 2.8 8 3.2 2.4 2 10.2 1.7 12.8-.5 2.8-2.2 2-2.2 16.6.5 2.3.4 6.5 1 9.3 1.2 18 1.6 17.2 1 13.6 8.7-4.8 10.3 3.7 9.4 14.5-1.6l4.8-5 13-.5c7-.3 14.6-1 16.8-1.2 5.7-.8 5.8-.2 1.7 5.7-6.3 9-7 12-7 28.4 0 11 .5 13.8 3.6 17l2 2.5-5.2.5c-8.2.8-42 .6-51.7-.3-21-2-39.4-5.3-55.6-10.4-2.4-.8-6-2-8-2.4-2-.7-4-1.5-4.3-1.8-.4-.4-1.3-.7-2-.7-.4 0-2.4-.7-4.2-1.6-2-1-3.8-1.7-4.4-1.7-3.5 0-5-21-2-26.7l2.7-4.6c5.6-10 13.5-12.7 25.2-8.6M328 170.8c5.8 3.6 7.3 6.5 4 8.2l-6.8 3.7-4.7 2.6.3-6.8c.4-9.4 1.8-11 7-7.7m-63.2 9.4c2 3.6 1.3 24.3-.8 25-2.8 1.2-10 2.4-24 4.4-6.6 1-4-3 3-4 7-1.4 9.5-4 12.7-12.7 1-3.3 2.4-6.5 2.8-7.3.4-.8.8-1.8.8-2.2 0-3.4 4.2-6 5.6-3.4m-198 68c3 2 8.8 5.2 13 7.2 9 4.5 9.6 6 2.6 6C67 261 60 256 60 246c0-2.6.5-2.4 6.6 1.7m93.3 31.5c12.6 2 61 3.6 64.6 2.3 11-4 21 2.8 21 14.5 0 3.2 1.8 18.3 3.5 28.5l.7 3.3-4 .7c-10.8 1.6-15.5 2-29.8 2.8-15.7 1-41 0-52.5-1.6l-10.4-1.6c-3-.4-8-1.4-11-2l-6.5-1.3c-.5 0 0-.7 1.2-1.7 7.6-6.7 9.6-27.5 4.3-44.5-.7-2.2-1.4-2.3 19 .7m-113 5.3c3 3.8 4 7.2 2.8 8.6-.6.5-4.4-5.5-7.6-11.6-2.2-4.3 0-3 4.7 3m288 20.4c2.5 7 1.8 8.7-8.6 19-9 8.8-11.5 11-19.5 17.2-7.3 5.4-28.2 18-30 18-.2 0-2.5 1-5.3 2.4-2.8 1.2-6.5 2.8-8.2 3.3-1.8.7-3.6 1.4-4 1.7-.5.3-2.4 1-4.4 1.5l-5 1.7-4 1-8 1.6c-25.2 5.8-53.3 5.7-77.7-.3l-5.6-1.2c-1.3-.2-3-.7-4-1-1-.4-4-1.5-7.2-2.4-15.3-4.8-20-8.3-25.2-18.5-5.2-10 .6-20.2 10-17.7 11.3 3 22.6 5.5 31.2 6.6 30.2 4 62.5 3.4 89.2-1.3l3-.6 2.8 6c5.3 11 13 11.6 22.3 2 1.4-1.5 5-8.3 7.7-15 .6-1.5 2.4-2.6 8-4.7 12.5-4.8 26.4-12 37-19.2 4.4-3 4.4-3 5.5.2"/>
		<path fill="#583f67" d="M184 30c-9.2.5-17.2 1.6-24 3.2l-6 1.2-4 1-5 1.7-5 1.8-3.5 1.4c-14 5.5-27.2 17-25 22 0 .6.3.6.3 0 .3-5.4 18.7-17.3 32.5-21 1.3-.5 5-1.5 8.4-2.5 12.3-3.5 28.4-5.2 49.6-5.2 22 0 28.6.7 43.6 4 3 .8 6.4 1.5 7.5 1.7l3.6 1c1 .4 3 1.2 5 1.7 12 3.7 23.5 11 28 18 3.3 5 4 5 2.5 1-4.2-12-16.4-19.6-43.4-27-1.2-.4-4.8-1-8-1.6l-9-1.7c-5-1-36.8-1.5-48-.8m8.7 13.7c-9.4 1.3-17.6 4.5-17.6 6.8 0 1.3 1.3 1.3 5.7-.3 12.3-4.4 33.2-4.4 43.5 0 5.6 2.4 7.5.8 2.7-2.4-6.7-4.2-21.2-6-34.3-4m96.5 5c-.7 1.3 4 5.7 10.3 10 3.5 2.3 9 6.3 12 9 3.3 2.4 6.4 4.5 7 4.5 2.7 0 2-1.5-2.7-5.3l-7-5.7c-5.3-4.7-19-13.3-19.6-12.4M98.7 56c-6 4-13 9.5-14.6 11.5-2.3 3 .2 3.3 3.6.4 1.2-1.3 4.4-3.7 7-5.5 2.7-1.8 5-3.6 5.2-4 0-.3.7-.6 1.2-.6 1.5 0 4-3 3.6-4.5-.3-1-1.4-.5-6 2.5m68.2 1c3.7 15.6 58.3 16 63 .2.7-2 .7-2-4.7 1.5-14.4 9.6-45.5 8.6-56.4-1.8l-2.4-2.3.6 2.2M103 72.6c0 .7.4 1.2 1 1.2.3 0 .7.8.7 2 0 1 .3 2 .6 2 .4 0 1.2 1 2 2 3.8 6.7 15 14.2 27.4 18.7l6.4 2.4c9.6 4 25 6.3 26 4.2.7-1.3.3-1.5-5-2.4-3-.6-6.5-1.3-7.6-1.7-1-.3-2.7-.7-3.8-.7-1 0-2.6-.3-3.3-.7-.8-.3-4-1.5-7.4-2.5-3.4-1-6.7-2-7.3-2.4l-7.3-3.5c-9.5-4.4-20.7-14.6-20.7-18.6 0-.5-.4-1-.8-1-.6 0-1 .7-1 1.3m187 3c-3 4.8-9.3 10.2-15 13.2-8 4-14 6.5-15.2 6.5-.8 0-1.6.3-2 .7 0 .4-1 1-2 1.2l-5 1.3c-4.8 1.4-8.8 2.2-17.3 3.6-13 2.2-13.2 2.3-13.5 4-.5 2.4 10.5 1.3 27.5-3 3.5-.8 7-1.8 7.7-2.3.8-.4 2-.7 2.7-.7.5 0 1.7-.3 2.5-.7l4.4-2c14-6 21.5-11.7 26.5-20.2 3.3-5.6 2-7-1.4-1.7m-121.3 36.5c0 .3 2 4.5 4.4 9.4 2.5 4.8 4.5 8.3 4.5 7.7 0-1-8-17.8-8.5-17.8-.2 0-.3.3-.3.7M120 122.5c-8.6 5.7-12 9-12 10.8 0 1.4.2 1.3 3-1l3.7-3 4.5-3.2c2-1.3 4-2.5 4.6-2.5.5 0 1-.3 1-.8 0-.4.3-.8 1-.8.4 0 2-1 3.3-2l2.5-2H129c-1.5 0-4.7 1.6-9 4.5m93.5 14c-.6 1.7-1.4 3-1.8 3-.3 0-.6.4-.6.8s-1 2.6-2.3 5c-2.5 4-2.8 5.7-.6 3.2 1.8-2 5.5-8.8 5.5-10 0-.7.4-1.4 1-1.5.4-.2.6-1 .5-1.8-.2-1-.6-.8-1.5 1.4m-110 15.8c-5.2 2.5-12.6 12.3-12.3 16.3 0 1.5 0 1.5.4-.2.2-1 .7-1.8 1-1.8.5 0 1-.4 1-1 0-7.2 17-14 25.3-10.2 1 .6 2.8 1.3 3.7 1.7l6 2.3c6 2.3 8.5 2.2 11.7-1 2.3-2 2.8-2.3 4.8-1.5 1.2.4 4.2 1 6.7 1.4l8.7 1.3c9.6 1.7 21 1.8 20.6 0-.2-1-2-1.5-12-2.7-13.2-1.5-22.8-3-24.7-3.5-.7-.2-2 .4-3 1.3-4.3 4-6.3 3.8-19-1-9.5-3.5-14.3-4-19.3-1.4m117 5.6l-14 .7h-6.7l-4 4.4c-5 5.4-10 8.7-14 9.3-2.3.4-3 1-3 2 0 4.2 7.7 1 15-6.3l5-5 8-.5c27-1.7 25.2-1.4 26.6-3.7 1.2-1.8.6-2-13-.8m-194.7 6.5c0 1.5 0 1.6.8.6 1-1.4 1-2.3 0-2.3-.5 0-.8.8-.8 1.8m2.4 2c0 1.3 6.3 10.8 11.3 17l2.4 3.2c1.3 2 1.4 2 1.4.3 0-1-2.8-5.6-6.4-10.4-3.6-4.7-6.7-9-7-9.6-.3-1-1.7-1.4-1.7-.4m294.8 3.8c-1.7 1.3-1.7 3.7 0 3.5 3.3-.4 4.8 0 7 2 3.7 3.5 5.4 2.2 2-1.6-3.5-4-7-5.4-9-4m40.7 8c-1.5 3.6-1 4.5 1 2 2.7-3.2 7.7 1 12.6 10.7 1 2.3 2.2 3.5 2.5 3 .7-1-4.4-10.4-8-15-3.7-4.5-6.2-4.6-8-.5m-102.2 1.7c-1.8 2-3.8 7.3-3 7.8.5.3.8 0 .8-.8 0-2 2.7-4.4 4.7-4.4 1.6 0 1.7-.2 1-2-1.2-2.4-1.7-2.5-3.4-.6m68.3 7.4c-4 2.6-7.8 4.8-8.3 5-.4 0-.6 1-.4 2 0 1.7.3 1.7 5-1 6.6-4 8-4.7 8.3-5.3 2.2-2.6 6.4-1.6 6.4 1.5 0 .6.4 1 .8 1 .3 0 1 .6 1 1.4.5 1.4 3 5.8 4 6.6l2.3 4.3c1 2.3 2 3.5 2.2 3 .4-2.3-11.4-23.2-13-23.2-.5 0-4.2 2.2-8.4 4.8m-76 10.7c-.3 3-5 6-11.5 7.6-8.5 2-8.3 4.7.4 3 7.4-1.3 13.2-6.5 11.6-10.4-.2-.6-.4-.7-.5-.3m-158 3.4c-.6.6 1 3.4 2 3.4.6 0 2 .6 3.5 1.2 6 2.7 11.2 4.5 12.5 4.5.8 0 1.7.3 2 .7.2.4 1.4 1 2.6 1.2 1.3.2 5 1.2 8.3 2.2 3.3 1 7.5 2 9.4 2.4l7.2 1.5c39 8.4 92.4 7 131-3.6 10-2.7 9.5-2.7 13 0 3 2 3.3 2.2 3.3.7 0-1.6-6-7.6-7-7-1.3.6-12.7 3.7-21 5.6-31 7-78.8 8-111.6 2.4-19-3.3-35.8-8-50.4-14-3-1-4.2-1.4-4.7-1M71 205.3c-2.7 1.2-4 2-4 3.2 0 1.8 0 1.8 3.6.3 6-2.5 14 1 14 5.8 0 .5.4 1 .8 1s1 .6 1.2 1.4c.2.7 1.7 3.7 3.3 6.6l7 13c4 8 6.2 10.7 7.7 9.8 1.3-1 1-3.5-.5-3.3-1.5.2-4.4-3.8-8.6-11.5l-10-19c-5-9-7.5-10.2-14.7-7.2m153.7 2c0 1.2 1.8 3.5 3 3.5 1 0 1-.3-.3-2-1.4-1.8-2.7-2.6-2.7-1.6M25.5 209c0 3.2 12.6 21 14.8 21 1.4 0 0-3-4.2-7.7-2.5-3-6-7.5-7.5-10-1.6-2.3-3-3.8-3-3.3m330.6 5c-2.6 2.5-3.3 4.8-1.3 4.8 1.4 0 4.7-4.4 4.3-6-.2-.8-1-.5-3 1.2m9.7 6.2c-3.5 4.3-8.7 9.8-11.5 12.2l-5.5 4.8c-5 5.2-24.4 17-36.8 22.4-7 3-21.7 14.2-21.7 16.5 0 2 1.7 1.3 8.3-4 3.6-3 8.2-6 10.2-7 5-2.2 13.4-6.4 17.2-8.6l4.8-2.8c11.2-6.3 31.8-24 36-31 .6-1 1.6-2.6 2.2-3.2 1.5-1.6 4-6.3 3.5-6.7-.2-.2-3.3 3-6.8 7.5m-54.5-1L299 229.4c-4.8 3.8-7 7-4.6 7 2 0 23.4-19 24-21.3 1-2.6.3-2.3-7.2 4.2M60 245.2c0 1.7.8 2.6 4.7 5.3 8.6 6 16.6 9.8 19.8 9.8 3.8 0 3.2-1-2.4-3.6-2.6-1.3-8.6-4.6-13.2-7.4-9.4-5.6-9-5.3-9-4m-19 1c0 .2.2 1 .6 1.8l1.8 4c.6 1.3 2.4 4.3 4 6.7l3.3 5.6c.3.8.5.5.5-.8 0-1-1.6-4.7-3.7-8-4.7-7.4-6.6-10-6.6-9.3m336 4c0 2.5.4 2.7 1 .5.3-.8 0-1.8-.3-2-.4-.2-.7.5-.7 1.6M23 253c0 1 .5 2 1 2.2.3.2.7-.4.7-1.6 0-1-.4-2-.8-2-.5 0-1 .7-1 1.5m352 2.2c0 1.2.4 1.8 1 1.6.3-.3.7-1.2.7-2 0-1-.4-1.6-.8-1.6-.5 0-1 1-1 2m-350.3 4c0 1 .4 2 .8 2.4.4.3.8 1.2.8 2 0 2 2 9.2 3.3 11.4 2.2 4 1.2 4.7-7 4.4-6.7-.2-7.5 0-7.5 1.2 0 .8.5 1.4 1 1.4.3 0 .7.7.7 1.5 0 1 .4 1.8.8 2 .4.4.8 1.4.8 2.4s.5 2.2 1.2 2.8c.7.5 1.2 1.6 1.2 2.4 0 .8.3 1.6.6 1.7.3 0 2 2.6 3.4 5.6 1.5 3 3.4 6.2 4.2 7 .7.8 1.3 2 1.3 2.4 0 .4.4.8.8.8.5 0 1 .5 1 1.2s.3 1.2.7 1.2c.4 0 .8.5.8 1.2s.4 1.2.8 1.2.8.5.8 1c0 .6.8 1.6 1.7 2.2 1 .6 1.6 1.6 1.6 2 0 .6 1.4 2.5 3.2 4.3 1.8 2 3.2 3.8 3.2 4.2 0 .5 1.5 2.4 3.4 4.3l7.6 7.8C62 348 70.3 355.6 71 355.6c.6 0 2.7 1.8 5 4 2.2 2.2 4.6 4 5.2 4 .6 0 1 .4 1 .8s.5.8 1 .8c.6 0 6.3 4 8 5.6 0 .2 1.3 1 2.5 1.5 1.2.7 2.2 1.5 2.2 1.8 0 .5.6.8 1.5.8 1 0 1.6.3 1.6.7 0 .7 7.3 4 8.8 4 .5 0 1 .4 1 .7 0 .7 5.5 3.4 7 3.4 1.4 0 5 2 4.4 2.7-.3.3.4.5 1.5.5 1.2 0 2.4.4 2.6.8.3.4 1.4.8 2.5.8 1 0 2 .4 2 .8s.7.8 1.5.8c1 0 1.6.4 1.6.8s1.4.8 3 .8c2 0 3.3.4 3.3.8s1 .8 2.4.8c1.3 0 2.6.4 2.8.8.3.4 1.4.8 2.5.8 1 0 2 .4 2 .8s1.6.8 3.5.8c2 0 3.6.4 3.6.8s2 .8 4 .8 4.3.5 4.8 1c.8.8 9 1 36 1 27.2 0 35.5-.2 36.3-1 .6-.5 3-1 5.3-1s4.2-.4 4.2-.8 1.5-.8 3.2-.8c1.7 0 3.4-.4 3.7-.8.2-.4 1.3-.8 2.4-.8 1 0 2-.4 2-.8s1.4-.8 3.2-.8c1.7 0 3.2-.4 3.2-.8s1-.8 2.4-.8c1.3 0 2.4-.4 2.4-.8s.7-.8 1.6-.8c.8 0 1.6-.4 1.6-.8s1-.8 2.4-.8c1.3 0 2.4-.4 2.4-.8s1-.8 2-.8 2-.3 2-.6 1-1 2.6-1.7c10-4.2 18.2-8.2 18.2-9 0-.4.7-.7 1.6-.7.8 0 1.6-.3 1.6-.8 0-.4.4-.8 1-.8s1.8-.6 2.6-1.4c1-.8 2.6-2 4-2.6 1.3-.6 3.3-2.2 4.5-3.4 1.2-1.2 2.6-2.2 3.2-2.2.5 0 2-1 3.2-2.4 1.2-1.3 2.6-2.4 3-2.4.5 0 2.6-1.7 4.7-3.8l6.8-6c3.5-2.6 9.2-8.2 12-11.8 1-1.5 3.7-4.5 5.8-6.6 2-2 3.8-4.2 3.8-4.7 0-.6 1-2 2.4-3.2 1.3-1.2 2.4-2.7 2.4-3.2s1-2 2.2-3c1.2-1.2 2.7-3.3 3.4-4.6.6-1.3 1.8-3 2.6-4 .7-.8 1.4-2 1.4-2.5 0-.6.3-1 .8-1 .4 0 .8-.8.8-1.7 0-1 .3-1.6.6-1.6.5 0 3.2-4.5 3.8-6.4l2.2-5c1.2-2.5 2.2-5 2.2-5.4 0-.4.8-2 1.7-3.7 1-1.8 1.2-2.7.5-2.2-2 1.5-16 1.5-16 0 0-.6.4-1.4.8-1.6.4-.4 1-2.2 1.3-4.2.3-2 1-3.8 1.3-4 .2-.3.6-1.5.6-2.8 0-1.2.3-2.5.8-2.8 1-.6 1-4.4 0-4.4-.5 0-.8 1-.8 2.4s-.4 2.4-.8 2.4c-.5 0-.8.7-.8 1.6 0 .8-.4 1.8-.8 2-.5.3-.8 1.2-.8 2 0 1-.4 2.3-.8 3L365 282c-19 39.6-55.3 74-94.6 90l-4 1.5c-38.3 15.3-85.7 16-126.8 2-2.7-1-6.4-2.4-8.4-3.3-2-.8-5-2-6.4-2.7-5.2-2.3-14-6.8-16-8.3-1.3-1-2.5-1.5-2.8-1.5-.3 0-4-2.4-8.3-5.4C71 335.8 49 310.5 36 283.3l-4-8.6c-.5-.8-.8-2-.8-2.6 0-.6-.4-1-.8-1-.5 0-.8-1-.8-1.8s-.4-2.3-.8-3.2l-1.6-3c-.5-1-.8-2.6-.8-3.7 0-1-.4-2-.8-2-.5 0-.8.8-.8 2m116 19c0 1.8 1.7 3 4.5 3 1.4 0 3.4.3 4.5.7 8.5 3.2 67.2 5.6 78.6 3.2 5.4-1 8.7 0 13.8 5l2.6 2.3v-2c0-4.5-9.7-10.5-15-9-6.8 1.6-52 .6-67.7-1.6-21.6-3-21.2-3-21.2-1.8M42.4 281c0 2.3 6 11 7.3 10.2.3-.2.7-1 .6-1.4 0-1.2-8-10-8-8.8m284.4 26.2c-9 6-18.8 11-31 16-7.5 3-10.6 4.8-11 6-1 2.4.4 2.7 4.2 1 1.8-1 4.8-2 6.6-2.8 9.5-3.6 25.4-12 34.5-18.2 2-1.3 4-2.3 4.4-2.3.5 0 .7-.7.5-1.4-.4-.7-.6-1.6-.6-2 0-1.3-1-.8-7.7 3.6m-186 11.8c0 .5-1 2-2.3 3.2-3 2.7-3 3-1 3 1 0 2.4-1 3.3-2.3 1.8-2.5 2.2-5 1-5-.6 0-1 .5-1 1m-20.2 14.3c-1.5 1.3-3.2 3.5-3.6 4.8-1 3-.8 2.8 4-1 3-2.4 3-2.4 10.2-.5 33.3 8.6 62.6 10.5 105.2 6.6 3.5-.3 6.8-.8 7.3-1 .4-.4 2.7-.8 5-.8 4-.2 4-.3 4-2.3-.4-2.4-.8-2.4-11-1-17 2.3-25.3 3-42 2.8-10.3 0-22.3-.5-27-1-17.8-2.2-24.8-3.3-31-5l-7-1.5c-1.7-.4-4.6-1-6.3-1.6-4.6-1.2-5-1-8 1.6m163 0c-.4 4-7 13-11.7 15.5-7 4-11.8 3-15.6-3-3.2-5.5-4.6-4.8-1.7 1 4.2 8.2 10 10.3 17.2 6.2 5.8-3.4 13-14.8 12.2-19-.2-1.3-.4-1.4-.4-.6"/>
		<path fill="#885fa0" d="M185.5 33.4c-.3.3-4.2.8-8.8 1.3-11.8 1-17 2-24 4l-8.4 2.4c-11.4 3.3-22.7 9.6-29 16.4C112 61 110 66 111.8 66c.5 0 1 .5 1 1.2 0 2.7 2 3.8 6.5 3 9.8-1.5 33.5-.3 35.6 2 .5.5 2 1 3 1.4 4.8 1 8.8 2.3 10 3.4.8.6 1.8.8 2.3.5.5-.3 1.2-.2 1.5.3.3.5 2.3 1.4 4.5 2 3.6 1 8.4 4.4 8.4 6 0 .4 1 .6 2 .4 1-.3 2-.7 2-1 0-.5.7-.8 1.5-.8 1 0 1.8-.4 2-.8 1.7-2.6 8 .7 16.5 8.7l5.2 5 8-.5c14-.7 17.5-1.3 35-6 17-4.5 34.8-16.4 35-23.4 0-.7.2-1.5.7-1.8.4-.3.7 1.3.7 4.2-.2 7.5-4.5 14-13.8 20-5.4 3.7-7.7 5-14.7 8-1.8.6-3.7 1.5-4.5 2-.8.3-2 .6-2.6.6-.8 0-2 .3-2.7.7-1.4.8-10.3 3.2-18.2 5-2 .4-6.8 1-10.3 1.3l-6.4.5v4c-.2 7-.7 11.7-1.4 11.3-.7-.3-1 1.5-.7 4 0 1-.2 1.4-.7 1-.6-.3-1 .6-1 2.6 0 2.2 0 2.7-.7 1.8-1-1.3-1.2-.5-1 3 0 1-.2 1.8-.6 1.8-.5 0-.7-.6-.4-1.4.3-1 .3-1-.3-.3-.5.6-.7 1.7-.5 2.5.4 1.3-2.8 8-5 10.6-1.2 1.3-1.2 1.4 0 1.4.5 0 2-1.6 3-3.6s2.2-3.6 2.5-3.6c.3 0 .6-.7.6-1.5 0-1 .3-1.8.8-2 .5-.3 1-1.3 1-2 0-1 .2-1.7.7-1.7.4 0 .8-.7.8-1.6 0-1 .3-1.6.8-1.6.4 0 .8-1 .8-2.4 0-5.3 2-1.8 2.7 4.5.4 3.5 1 6.7 1.4 7 .5.5 1 2.3 1 4v3.2l5.3-.5c15.2-1.5 14.6-1.3 19.5-5.4 7.7-6.4 16-10.7 22.2-11.3 2.4-.3 4.8-3.5 5.7-7.6l1.5-7c1.5-7 12.8-14 21.8-13.6 5.6 0 5.7-.2 9.2-19 1-6 3.6-9 8.7-10.8 1-.4 1.2-.6.3-1-.7-.2-3.8-2.5-6.8-5-3-2.4-8.3-6.3-11.6-8.5-8.6-5.6-8.5-5.5-7.4-3.5.7 1.3 1 9 .4 9l-3-4.4c-4.6-6.8-16.2-14.2-28-18-2-.5-4-1.3-5-1.6-.8-.4-2.4-.8-3.5-1L248 38c-6-1.4-11.2-2.4-18.5-3.2-7.8-1-43.4-2-44-1.3m31.5 5c11.5 4 15.8 10 12.3 16.7-.6 1-.6 1.3.2 1 1.3-1 .2 2.6-1.5 4.5-11 12.4-64 9.4-60.7-3.4.2-1 0-1.5-.5-1-.5.2-.6 0-.3-1 .3-.7 0-2-.4-2.8-3.5-5.8 8.3-15 21.4-16.3 8.4-1 24 .3 29.6 2.3M190 48c-7 1-14.4 3.6-13.5 4.3 7.4 6.5 36 7.3 49 1.5L229 52l-4-1.5c-8.8-3.6-23.4-4.7-35-2.6m-88.5 9.8c-.7.2-1.4.6-1.6 1l-5.3 3.7c-2.7 1.8-6 4.2-7 5.4-1.4 1-3 2-3.4 2-1 0 0 4.7 1.4 6 .3.3.6 1.2.6 2 0 2.8 7 1.7 9.4-1.4.5-.8 1-1 1-.4 0 1.7 2.2 1 4-1.3l1.5-2.3V75c0 1 .4 2 1 2 .3 0 .7.7.7 1.3 0 .7.2 1.2.7 1.2.4 0 .8.4.8.8 0 1.4 6.5 7.5 11.7 11 7.3 5 24.4 12.2 29 12.2.7 0 1.7.3 2 .7.5.4 4 1.4 8 2 8.5 1.8 9.8 2.3 10.5 4.7.3 1 3 6.4 5.7 12 2.8 5.8 5 10.8 5 11.3.2 2.7 2.5 4 2.5 1.2 0-2.2-.3-2.5-1-1.6-.6 1-.8.8-.7-.5.3-3.2 0-4.5-1-4-.6.5-.7 0-.4-1 .2-1 0-1.7-.6-1.6-.5 0-1-.7-1-1.7.2-1-.2-1.6-.6-1.6-.5 0-1-.5-1-1.3-.4-1-.2-1.3.6-1 .7.5.8.5.4 0-.3-.4-1-.7-1.6-.7-.5 0-1-.8-.8-1.8 0-1-.4-1.7-.8-1.7-.5 0-1-.6-.8-1.6 0-1-.3-1.7-.8-1.6-.4.2-1-.4-1-1.2-.3-1 0-1.3.6-1 .6.4.5 0-.3-.5-.7-.7-1.2-1.4-1-1.6 1-.8-1.4-3.7-2.5-3.2-1.5.5-20-3.5-24.7-5.4l-6.3-2.3c-12.5-4.6-23.5-12-27.4-18.6-.7-1-1.6-2-2-2-.3 0-.6-1-.6-2 0-1.2-.3-2-.7-2-.4 0-.7-1.5-.8-3 0-1.8-.3-4.2-.7-5.5-.4-1.4-.4-3.6 0-5 .8-3 .7-3.4-1-2.8m27.6 60l2.5.6-2.5 1.8c-1.4 1-3 2-3.4 2-.5 0-1 .2-1 .7 0 .4-.2.8-.7.8-.8 0-3.7 1.8-9.2 5.7-3.3 2.4-6 5-6 5.6 0 .5 1.3-.4 3-1.8 1.6-1.4 6.2-4.7 10-7.3 10.7-7 12.2-8.8 7-8.5-2 0-2 0 .3.6m19.4 23.6c-.6 3.5-.2 4.5 1 2.2.6-1 .7-2.4.3-3.5-.6-1.5-.8-1.4-1.3 1.4m30.8-1c0 3.8 1.4 5.2 1.5 1.6 0-1.8-.3-3.4-.7-3.4-.5 0-.8.8-.8 1.8m-69.8 10c1 .2 2.4.2 3.2 0 .7-.2 0-.4-1.8-.4s-2.4.2-1.4.4m-3 4c-4.6 1.6-6.7 3-9.6 6.6-1.8 2-3.3 4.3-3.3 4.7 0 .5-.3 1-.8 1-.4 0-.8.7-.8 1.7-.2 1.8-.2 1.8-1 .2-.5-1.4-.5-1.3-.6.6 0 3.3 1.2 2.7 3.3-1.4 5-10.4 16.6-15.8 24.5-11.6 10 5.3 18.7 6.7 22.5 3.6l2.5-2 12.6 2c19.3 3 25.5 3.3 26.2 1.2.3-1 .2-2-.3-2.6-.6-.5-.7-.3-.4 1 .6 2-9.8 2-20.5.2-2.4-.5-6.4-1-8.8-1.4-2.4-.3-5.4-1-6.7-1.4-2-.7-2.5-.5-4.8 1.7-3.7 3.6-5.4 3.5-18-1.7-1.2-.4-2.7-1-3.4-1.4-1.7-1-11-1.7-12.6-1m118 6.7c-4 .4-11.3 1-16.4 1.2l-9.2.7-5 5c-7.5 7.3-15 10.4-15 6 0-1-.2-1.8-.6-1.8-.4 0-.6 1-.4 2.2.6 5.5 11.7 1 18.8-7.5l3-3.6H213c9.7 0 13.3.3 13.6 1 .2.6 1.3 0 3-1.6 1.6-1.4 2.6-2.5 2.4-2.4l-7.6.7m-197.7 1.5c.2.7 0 2-.4 2.6-.6 1-.7 1-.8 0-.2-2.2-3.5 16.3-5.2 29.5-1 7.5-2 2.8-2-10v-12L11 172c-4.2 0-7.6 0-7.6.5 0 .3-.5.6-1.2.6-.6 0-1.3.6-1.6 1.3-1 2.7 0 58.6 1 59.7.5.5 1 3 1 5.2 0 2.3.3 4.3.8 4.3.4 0 .8 1.6.8 3.6s.3 3.7.8 3.7c.4 0 .8 1 .8 2.4s.3 2.5.8 2.5c.4 0 .8 1.2.8 2.7 0 1.5.3 3 .8 3.2.4.3.8 1.2.8 2 0 1 .3 2.4.8 3.3l1.6 3c.4 1 .8 2.5.8 3.3 0 1 .3 1.6.7 1.6.4 0 1 1 1 2.2l.3 2.2 8.2.3c8.8.3 9.7-.3 7.4-4.5-2.2-4.2-4-13.6-2.4-12.6.4.3.6 0 .3-.8-.4-1-.7-1-1.2-.2-1 1.4-2-1.2-1.3-3.3.2-1 0-2-.7-2.6-1.3-1-1.5-4-.3-4 .4 0 .5-.5.3-1-.3-.8-.8-1-1.3-.8-.5.3-.7-.3-.4-1.8.3-1.3 0-3.5-.7-5-.7-1.4-1.2-3.4-1.2-4.4 0-1-.3-4.8-.8-8.5-1.4-11.5-2-22-1.2-25.4l.7-3 .6 4c.5 2 1.3 7.8 2 12.7 1.2 8.4 2 13.5 3.6 19.6 1.2 4.5 4 14.6 4.8 16.3l1.7 4.4c2 5.2 17.5 24.4 18.8 23 1-.8 2-15 1.2-17.2-.5-1.7-.7-1.8-.8-.6 0 1-.2 1.2-.6.3-.2-.7-1.7-3.2-3.3-5.6-4-6-5.2-8.5-4.7-9.8.2-.7 0-2-.6-3.2-.7-1.2-1-4.5-1.2-8.6 0-6.2 0-6.8-2.2-8.8C33 223.2 25 210.8 26 208.7c0-.6 0-1.4-.5-2-.5-.3-.6-1.3-.3-2 .4-1.4.7-1.3 2 .7 2.5 4 12.4 14.8 13.4 14.8.8 0 1-3.3 1-14.3 0-8 .4-14.5.8-14.7.4 0 1-1.3 1.2-2.6.4-1.8.4-2-.3-1.2-.5.6-1 .8-1 .4 0-.6-.8-2-1.8-3.3-8.6-10.4-13.2-18-11.8-18.8.7-.5.8-.8 0-1.2-.4-.3-.8-1.3-.8-2 0-1-.5-1.7-1-1.7-.4 0-.6.8-.3 1.5m355.2 9.8c-.3.2-.5 6-.5 12.8 0 7-.3 13-.8 13.8-.6.8-.8.3-.8-2 0-1.7-.3-3-.6-2.6-.3.3-1.4-1-2.4-3.2-9-17.7-16.3-15-16.3 6 0 4.5-.4 9-1 10-.3.8-.7 3-.7 4.4 0 3.2-2.5 7.4-4.3 7.4-.8 0-1.2-1-1.2-3.2 0-1.8-.4-3.2-.8-3.2-.5 0-.8-1-.7-1.8.3-3.5 0-6-.8-4.8-.4.7-1.2-.2-2.5-2.8-1-2-2-4-2.4-4.2-.8-.8-3.3-5.3-3.7-6.6-.3-.8-.8-1.4-1.2-1.4-.4 0-.7-.5-.7-1 0-3-4.2-4.2-6.4-1.5-.5.5-2 1.5-8.5 5.3-5.4 3-5.7 3.5-6 12 0 2.6-.4 5-.7 5.5-.2.6-.4 2-.5 3.3 0 1.3-.4 2.6-.8 3l-7.4 6.3-11 9.5c-4.2 3.6-4.4 6-.3 4.6 8-3.2 10-1.8 11 7.2.6 8.4.3 8.3 10.8 3 20-10 30-17.4 44-32 8.2-8.4 10-9.5 6.6-4-1.8 3-2 3.2-.4 1.8 1-.8 1.7-1.2 1.7-1 0 1-2.5 5.5-3.7 6.8-.6.6-1.6 2-2.3 3.3-4 7-24.7 24.6-36 31l-4.7 2.7c-3.8 2-12 6.3-17.2 8.6-2 1-6.6 4-10.2 7-6.7 5.3-8 6-8.4 4.2-.2-.6-.6 5.8-1 14.2-.3 8.3-1 17.7-1.3 20.7-.5 3.4-.6 6-.2 6.4 1.7 1.6 28-10.3 40.8-18.5 4.4-3 4.7-3.4 3.2-5-.7-.6-.7-.8 0-.8.8 0 .8-.4.2-1.6-1.5-2.8-1-11 1-15 5.5-12 33-40.2 39.3-40.2 3.3 0 5.7-9 7.6-29.2.4-4.7.6-5.3 1-3.4 1 2.6 0 21.5-1 29.8-.5 3-.8 6.4-.8 7.5 0 1-.3 2.4-.7 3-1 1.3-1.7 4.3-1 4.8.4.2.5 1 .3 2-.4 1.3-.6 1.5-1.2.6-.4-.6-.5 0-.2 2 .4 2.3.3 3-.7 3.4-1 .4-1.2 1-.8 2.4.5 2.7-.4 5.2-1.4 3.5-.5-.7-.6 0-.3 2 .3 1.5 0 3.3-.3 4-.5.4-1 2.4-1.4 4.3-.3 1.8-1 3.6-1.3 3.8-3 2-.4 3 7.3 2.6 4.8 0 8 0 8.3.5 0 .4.2 0 .3-1 0-2 2-7.5 2.7-7.5.3 0 .6-.7.6-1.5 0-1 .4-1.8.8-2 .4-.3.8-1.4.8-2.5 0-1 .4-2 .8-2s.8-1.4.8-3.2c0-1.7.4-3.2.8-3.2s.8-.7.8-1.8c0-1 .4-2.2.8-2.5.4-.2.8-2 .8-3.6s.4-3 .8-3 .8-2 .8-4.4c0-2.7.4-4.4 1-4.7.8-.3 1-7.7 1.2-32.8l.2-32.4h-8.8c-5 0-9 .3-9.3.5m-61.2 7v6l3.8-2c7-4 9.4-5.4 8.3-5.4-.6 0-2-1-3.2-2-1.2-1.2-2.7-2-3.4-2-.7-.2-2.2-.3-3.4-.3l-2.2-.2v5.8m-60.2 5c-.8 1-1.4 2.2-1.4 3 0 .6-.4 1-.8.6-.8-.6-1 .2-1 3.5.2 2 0 2-.6.4l-.7-1.7v5.1c0 1.6 0 1.8-.7.8-1-1.2-1.3-.3-1 2.3.3 1.8-2.2 6.4-4.5 8.2l-2.2 1.8 3.2-.5c12.2-1.8 16-3 15.3-5-.2-.6-.4-5.5-.4-10.7 0-10.3-1.3-12.3-5-8m-39.3 11c-.3.3-.5 1.5-.5 2.7 0 1.2-.5 2.4-1.2 2.7-.7.2-1.2 1.3-1.2 2.4 0 1.7-.5 2-2.2 2.3-1.3.2-2.5 1-3 2-.4 1-1.5 2-2.4 2.6-1.2.5.7.7 7 .7 8.4 0 8.6 0 7.8-1.5-.5-1-.7-2-.4-2.4.2-.4 0-1-.4-1.2-.4-.3-.8-1.3-.8-2.3 0-6-1.2-9.4-2.7-8M96.5 205.6c.3.6 1 1.2 1.5 1.2 1 0 8.5 2.7 11 4 .7.4 2 .8 2.8.8 1 0 1.8.2 2 .5 1 1 6.4 2.7 8.3 2.7 1 0 2 .4 2.4 1 .3.3 1.5.7 2.8.7 1.3 0 2.5.3 2.8.8.3.4 1.7.8 3.2.8 1.5 0 3 .3 3.2.8.3.4 1.8.8 3.5.8 1.5 0 3.2.3 3.6.7.5.4 2.8 1 5.2 1l9.2 1.5c2.6.5 8.5 1 13 1.3 4.5.3 8.2.8 8.2 1.2 0 .4 2.6.8 5.8.8h5.8l-3.2 1.2c-1.8.6-3.8 1-4.5 1-.6 0-1.8 1-2.6 1.8-1 1-1.7 1.3-2.4.7-.7-.6-1-.3-1.4.8-.3 1-1 1.6-2.3 1.6-1 0-2.4.7-3 1.3-1.2 1-3.7 1.6-10 2.4-.6 0-1.5.4-1.8.7-.3.3-1.3.5-2.3.5-1 0-2 .3-2.4.7-3.4 3-40.7 2.7-44.5-.5-2.2-2-4.7 1.5-4.7 6.5s-3.7 1.3-8.7-8.2l-7-13c-1.6-2.8-3-5.8-3.3-6.6-.3-.8-.8-1.5-1.2-1.5-.4 0-.7-.4-.7-1 0-2.4-5.5-7-8.3-7-5.7 0-9 2-10 6.3l-1.7 6.2c-.5 1.3-.8 3.2-.8 4 0 1-.4 2-1 2.7-.8 1-.8 1 0 .5.6-.3 1-.2 1 .3s-.3.8-.7.8c-.4 0-1 1-1.2 2.2 0 1.3-.5 3.2-.8 4.3-.5 2 0 2.4 5.3 5.6C73 244.2 90.7 253 91.8 253c.4 0 2 .8 4 1.7 6 3 11 4.3 17 5 7.8.6 11 1.5 17 4.7 5.4 2.8 5.8 3 28.2 6.4 17 2.6 51.5 3.7 51 1.5-4-14.2 7.8-41.3 19.2-44.7l5.2-1.7c1-.5 3-1 4.4-1 1.5 0 5.8-.8 9.8-2 4-1 9.8-2.2 13-2.4l5.6-.4 4.7 4c2.4 2.4 7 5.4 10.2 7 5.5 2.6 11.5 5 12 5 .3 0 .3-1.4 0-3.3 0-2-.3-4-.3-4.5-.2-.6-.5-.8-1-.6-.4.2-1-2-1.3-5.2-.5-5.4-.7-5.8-3.6-8-3.3-2.5-3-2.5-13 .3-38.5 10.6-91.8 12-131 3.8l-7.2-1.6c-2-.4-6-1.5-9.4-2.4-3.3-1-7-2-8.2-2.2-1.2-.2-2.4-.7-2.7-1-.2-.5-1-.8-1.8-.8-1.3 0-6.6-2-11.7-4-4.6-2-6-2.4-5.5-1.2m-15 5.6c.5.6 1 1.4 1 2 0 .4.6 1.6 1.5 2.5 1 1 1.6 2.2 1.6 2.8 0 .6.4 1 .8 1s.8.5.8 1c0 .7 1 3 2 5.3 3.2 6.7 2.4 8.4-2 4.6-1.8-1.4-3.5-2-5.7-2-1.7 0-3-.4-3-.8 0-.5.3-.8.8-.8 1.3 0 .2-1-1.3-1.3-.7 0-1.2 0-1.2.5 0 .4-.4.8-.8.8s-.7-.4-.6-1c0-.5-.7-1.4-1.8-2-1-.5-1.7-1-1.3-1 .4 0 .2-.6-.3-1.2-.6-.7-1.7-1.2-2.5-1.2-2 0-2.2-7.2-.2-9 3.5-3 9.2-3 12-.2m-21 38c1.8 8.6 8 12 22 11.8 5 0 5.2 0 1.6-.7-2-.4-5-1.4-6.7-2.3l-6-3.4c-4-2.3-10-6.4-10.8-7.5-.4-.3-.4.5 0 2m82.2 36c1 5.5 1 28.7 0 31-.3.7-.5 2-.4 3 0 .7-.8 2.6-2 4l-2 2.7 5 1c4.8 1 6.7 1.2 19.4 3 21.2 3.2 61 2.6 82.6-1 4.4-.8 4.3.3 1.8-17.2-.7-6.4-1.5-13.6-1.5-16 0-2.4-.2-4-.5-3.8-.2.2-1.6-.6-3-2-5-4.7-8.2-5.8-13.7-4.7-10.6 2.2-73 0-77.4-3l-5-1-4.2-.5 1 4.5m32.5-3.4c.8.2 2 .2 2.8 0 1-.2.3-.4-1.3-.4-1.5 0-2 .2-1.4.4m-128 8.8c1.7 3.2 3 3.8 3 1.3 0-.6-.3-1-.7-.7-.4.2-1.5-.5-2.5-1.8-1.5-2-1.5-2 .3 1.2m283 18.3c-8 5.7-25.2 15-34.8 18.5L289 330c-2 .8-4 1.4-4.5 1.2-.6 0-1 .6-.7 2 1 8.4-11 21.4-19.5 21.4-5.2 0-14.4-10.5-11-12.6.6-.4.7-1 .2-1.8-.4-.6-.8-.8-.8-.3 0 .4-1.8.8-4 1-2.4 0-4.6.3-5 .7-3.2 2-41.8 3.7-58.8 2.7-24.7-1.6-33-2.8-53.7-8-7.7-2-7.3-2-10.7.6-1.7 1.4-3.5 2.3-4 2-1.2-.8 0 6.8 1.8 10.3 3 6 8 11.5 12.3 13.4 6 2.6 6.7 3 12.8 4.8l7.2 2.4 4 1 5.6 1.3c24.4 6 52.5 6 77.6.3l8-1.7 4-1c.8-.5 3-1.3 5-1.8 2-.6 4-1.3 4.5-1.6.4-.2 2.2-1 4-1.5 1.7-.5 5.4-2 8.2-3.3 2.8-1.3 5-2.3 5.3-2.3 1.8 0 22.7-12.7 30-18 8-6.2 10.5-8.5 19.4-17.4l9.5-9.3v-4c0-4.8-1.2-5.2-5.7-2m-145 32c1 .3 2.5.3 3.2 0 .8 0 0-.3-1.8-.3-1.7 0-2.4.2-1.4.4m26.8 0c1 .2 2.2.2 3 0 .7-.2 0-.4-1.5-.4s-2 .2-1.4.4"/>
		<path fill="#c5aad4" d="M169.7 1c-2 0-3.4.6-3.4 1s-2 .7-4.4.7c-2.5 0-4.6.4-5 .8-.2.5-2 .8-4 .8s-3.5.4-3.5.8c0 .6-1 1-2.4 1-1.2 0-2.3.3-2.3.7 0 .5-1.5.8-3.2.8-1.8 0-3.2.4-3.2.8 0 .5-1 .8-2.4.8s-2.5.5-2.5 1c0 .4-.7.7-1.6.7-1 0-1.7.4-1.7.8 0 .5-1 .8-2.4.8s-2.5.4-2.5.8c0 .6-.7 1-1.5 1-1.7 0-5.7 1.7-5.7 2.5 0 .4-.6.6-1.4.6-1 0-2.5.7-3.8 1.3-1.3.7-2.8 1.2-3.4 1.2-.6 0-1 .3-1 .6 0 .8-4 2.7-5.3 2.7-.5 0-1.4.7-2 1.6-.6 1-1.8 1.6-2.6 1.6-1 0-1.5.2-1.5.6 0 .4-.6 1-1.4 1.2-1.3.4-5.7 3-6.5 3.7-.2.3-1.4 1-2.6 1.6-1.3.7-2.3 1.5-2.3 2 0 .2-.4.5-1 .5-.4 0-1.8 1-3 2.4-1.2 1.3-2.7 2.3-3.2 2.3s-2.3 1.5-4 3.2c-1.7 1.8-3.7 3.2-4.4 3.2-.5 0-1 .6-1 1.3 0 .7-.7 1.4-1.5 1.7-3 1-16 14.3-17.2 17.2-.3.7-1 1.3-1.8 1.3-.7 0-1.2.6-1.2 1.3 0 .7-1.5 2.7-3.2 4.3-1.7 1.6-3 3.4-3 4 0 .5-1.2 2-2.5 3.2-1.3 1.2-2.4 2.6-2.4 3 0 .6-.2 1-.6 1-.3 0-1.2 1-1.8 2.2L31 90c-.7.7-3.2 5.2-3.7 6.6-.2.7-.7 1.4-1 1.4-.5 0-.8.6-.8 1.4 0 .8-.7 2-1.6 2.6-1 .6-1.7 1.5-1.7 2 0 1.3-2 5.2-2.6 5.2-.3 0-.6.5-.6 1 0 .7-.4 2.2-1 3.5-.7 1.2-1.3 3-1.3 3.7 0 .7-.3 1.4-.6 1.4-.7 0-2.5 4-2.5 5.7 0 .8-.4 1.5-.8 1.5s-.8 1-.8 2.4c0 1.3-.5 2.4-1 2.4-.3 0-.7.7-.7 1.6 0 .8-.4 1.6-.8 1.6s-.8 1.2-.8 2.8c0 1.5-.4 2.8-.8 2.8-.5 0-1 1.4-1 3.2 0 2-.2 3-.7 2.8-.5-.3-.8.5-.8 2 0 1.3-.4 2.4-.8 2.4s-.8 1.6-.8 3.5c0 2-.5 3.8-1 4-.3.3-.7 2.5-.7 4.8s-.2 4.5-.5 4.8c-.3.4-.7 1.4-.8 2.4l-.6 3.8c-.2 1-.2 1.5 0 1 .3-.6 1-1 1.6-1 .6 0 1-.3 1-.6 0-.4 3.5-.5 7.7-.4l7.6.3v4l.2 4.3.7-3.2c.3-1.8.7-4.8.7-6.7 0-2 .3-5 .7-6.5l1.6-7.3c1-5 1.6-6.8 4-15.2 1-3.3 2.2-6.4 2.6-6.8.2-.4.5-1.4.5-2.2 0-.8.4-2 .8-2.8l5.5-11.4C55 78.5 89.4 46 131 29c4.4-1.8 5.5-2.2 10-3.7 28.8-9.5 57.2-12 84.5-7.7 17.3 2.7 27.4 5 30.6 6.8 1 .4 2 .8 3 .8.7 0 1.7.3 2 .6.6.4 2.3 1 4 1.7 3.6 1.2 9.6 3.8 17 7.4 4.6 2.2 5.5 2.7 13.5 7.4 24.5 14.4 51 42 64.4 67.2 1 2.2 2.4 4.7 3 5.6 1 2 5.7 12.3 6.5 14.4l2.3 6c1 2.2 1.7 4.8 1.7 5.6 0 .8.3 1.7.8 2 .4.2.8 1.2.8 2.2 0 1 .7 3.4 1.4 5.4 1.4 4.2 2.4 9 3.7 18.8.7 5 1 6.5 1.4 4.8.5-2.3.6-2.3 5-2 6 0 13.5-.8 13.5-1.8 0-.4-.4-.6-.7-.4-.3.2-.5-1.2-.3-3.2.2-2.5 0-3.5-.6-3-.6.3-1-.8-1-3.6 0-2.2-.3-4-.7-4-.5 0-.8-1.8-.8-4s-.4-4-.7-4c-.7 0-2.6-5.8-2.6-8 0-1-.4-1.6-.8-1.6-.5 0-1-1.3-1-2.8 0-1.5-.3-3-.7-3.2-.4-.3-.8-1.2-.8-2 0-1-.4-1.6-.8-1.6s-.8-1-.8-2.4c0-1.3-.5-2.4-1-2.4-.3 0-.7-1-.7-2s-.4-2-.8-2-.8-.6-.8-1.2c0-.7-.4-1.2-.8-1.2-.5 0-1-.6-1-1.4 0-1.8-2.4-7.4-3.3-7.4-.3 0-.6-.6-.6-1.2 0-1.6-3.3-8.4-4-8.4-.4 0-.7-.7-.7-1.6 0-1-.4-1.6-.8-1.6s-.8-.5-.8-1c0-.7-.7-1.8-1.6-2.6-.8-.8-1.5-2-1.5-2.5 0-.6-.4-1-.8-1s-.8-.5-.8-1c0-.6-1.6-2.7-4-5-.4-.7-1-1.5-1-2 0-.4-1.7-2.6-4-4.8-2-2.3-4-4.5-4-5 0-1.8-24.4-26.3-26.4-26.3-.4 0-2.2-1.4-4-3.2-1.6-1.8-3.4-3.2-4-3.2-.6 0-1.6-.7-2.3-1.6-.6-1-1.6-1.6-2.2-1.6-.4 0-1-.3-1-.7 0-.4-1-1.2-2-2-1.3-.5-2.8-1.5-3.5-2.2-1.4-1.5-5.5-4-7.4-4.5-.6-.3-1.3-.8-1.3-1.2 0-.3-.7-.6-1.6-.6-.8 0-1.5-.4-1.5-.8s-.7-.8-1.6-.8c-1 0-1.7-.4-1.7-.8s-.7-.8-1.6-.8c-1 0-1.6-.3-1.6-.7 0-.7-2.4-2-4-2-1.3-.2-8-3.3-8-4 0-.2-1-.5-2.3-.5-1.3 0-2.4-.4-2.4-.8s-.7-.8-1.5-.8c-1 0-1.8-.4-2-.8-.3-.4-1.4-.8-2.5-.8-1 0-2-.4-2-.8s-1-.8-2.3-.8c-1.4 0-2.4-.4-2.4-.8s-1.5-.8-3.2-.8c-1.8 0-3.2-.4-3.2-.8s-1-.8-2-.8-2.2-.4-2.4-.8c-.3-.4-2-.8-4-.8S243 4 243 3.7c0-.4-1.7-1-4-1.2-2.4-.2-6.2-.7-8.7-1.2-4-.7-53-1-60.6-.3m-55.4 70.5c4.3 6 12.8 11.6 24.4 16 2.6 1 5.4 2 6.2 2.5.7.4 2 .8 3 .8.8 0 2.2.3 3 .7.7.4 3.5 1 6 1.7l7.2 1.6c4.8 1.5 8 1 10-1.6 1-1.6 2.5-2.4 3.7-2.4 1 0 3.5-.8 5.5-1.7 4-1.8 5.8-3.6 3-2.8-1 .2-1.8 0-1.8-.3 0-1.8-4.7-5.3-8.4-6.3-2.2-.5-4.2-1.4-4.5-2-.3-.4-1-.5-1.5-.2s-1.5 0-2.2-.5c-1.2-1-5-2.4-9.8-3.4-1.2-.3-2.7-1-3.3-1.5-2.3-2-25.3-3.3-36-1.7-3.4.5-4.7.4-4.7-.2 0-.4-.4-1-1-1-.3 0 0 1.2 1 2.5M100.5 75c-1.5 2.2-3.8 3-3.8 1.2 0-.5-.5-.3-1 .4-2.4 3.2-9.4 4.2-9.4 1.3 0-1-.3-1.8-.7-2-2-1.2 3.2 11 7 17 7.5 10.8 20.3 18.8 32 20 5.4.5 7.3 1.6 5.3 3-1.2 1-1.2 1 .4 1.4 2.5.7 1.3 1.8-9.2 8.8-12 8-12.8 9-9 10.5 3 1.2 3.4 1.2 6.8-.4s12.8-7.6 13.7-8.7c2.5-3.3 11.5-6.3 13.6-4.6 2.8 2 4.7 17 2.8 21.5-.3 1 .4 1.4 4.6 2 8 1.5 22.4 3 25 2.5 2.6-.3 4-2.7 2-4-.5-.2-1-2-1.2-4 0-2-.6-4.3-1-5.2-2.3-4.3-11.2-23.3-11.7-25-.7-2.3-2-2.8-10.4-4.5-4-.7-7.6-1.7-8-2-.4-.4-1.4-.7-2.3-.7-4.4 0-21.5-7.3-28.8-12.2-5.2-3.6-11.7-9.7-11.7-11 0-.5-.4-.8-.8-.8-.5 0-.8-.6-.8-1.2 0-.7-.5-1.2-1-1.2-.3 0-.8-1-1-2.2v-2.2l-1.6 2.2m92 8.4c-.2.3 1 .6 2.7.6 1.8 0 2.7-.3 2.2-.6-1.2-.8-4.3-.8-4.8 0m9 2.8s1.2 1.3 2.7 2.6l2.7 2.4-2.4-2.6c-2.2-2.5-2.8-3-2.8-2.4M219 130c0 1.2-.3 2.4-.7 2.4-.5 0-.8.7-.8 1.6 0 .8-.4 1.6-.8 1.6-.5 0-.8.7-.8 1.5 0 1-.5 2-1 2.2-.4.2-.7 1-.7 2 0 .8-.3 1.6-.7 1.7-1 .3-4.3 6.3-4 6.7.3.2 5 0 10.4-.3s8.5-.7 6.8-1c-2.8 0-3-.3-3-3 0-1.8-.3-3.5-.7-4-.3-.3-1-3.5-1.3-7-.7-6.3-2.7-9.7-2.7-4.5m19 17.3c1 .2 2.6.2 3.6 0s.2-.3-1.8-.3-2.8 0-1.8.3m-135 9.5c-3 1.5-7.2 6.5-9.4 11-1 2-2.2 3.7-2.6 3.7-.4 0-.8 3.4-.8 7.5 0 7.8 1.5 13.3 3.5 13.3.6 0 2.5.7 4.4 1.6 2 .8 4 1.5 4.4 1.5.6 0 1.5.3 2 .7.3.4 2.3 1 4.2 1.7l8 2.3c25.5 8 50.8 11.3 85.2 11 12.2 0 18-.3 14-.5-4.3-.3-6.2-.7-5-1 .7-.4 1.8-1.5 2.3-2.5.5-1 1.7-2 3-2 1.8-.2 2.3-.7 2.3-2.3 0-1 .5-2 1.2-2.4.6-.2 1.2-1.4 1.2-2.7 0-1.4.5-2.7 1-3 .8-.5 1.3-3 1.7-7.5 1-14.8 1.2-15.8 5.6-22.4 2-3 1-3.3-1.4-.3-.4.5-.8.5-1-.2-.4-.7-4-1-14-1h-13.2l-3 3.5c-1.6 2-5 5-8 7-9 6-13.6 2.6-9.2-7 2-4.4 2-4.3-5-4.8-3.3-.2-11.6-1.3-18.6-2.4l-12.6-2-2.4 2c-3.8 3.2-12.4 1.8-22.5-3.5-2-1.2-12.6-.8-15 .5M41.5 204c0 12.3 0 12.5.7 5 1-11.3 1-17.5 0-17.5-.6 0-.8 4.7-.7 12.6m56.2 5.5c.5 1.6 1.2 3 1.5 3.4.3.2.5 1.2.5 2 0 1 .3 2.2.7 2.6 1.2 1.4 5.7 17.2 5.8 20.8 0 2 .2 2 .5.5.4-2 1.5-2.4 3.4-.8 3.7 3.2 41 3.6 44.4.5.4-.4 1.5-.8 2.4-.8 1 0 2-.3 2.3-.6.3-.3 1.2-.6 2-.7 6-.8 8.6-1.4 9.7-2.4.8-.6 2.2-1.2 3-1.2 1.3 0 2-.4 2.4-1.5.3-1 .7-1.4 1.4-.8.7.6 1.4.4 2.4-.7.8-1 2-1.6 2.7-1.7.6 0 2.7-.5 4.4-1l3.2-1.3h-5.8c-3.2 0-5.8-.4-5.8-.8s-3.7-1-8.2-1c-4.5-.4-10.3-1-13-1.4-2.6-.5-6.8-1-9.2-1.4-2.4-.2-4.7-.7-5-1-.6-.5-2.3-.8-4-.8-1.5 0-3-.4-3.4-.8-.3-.5-1.7-.8-3.2-.8-1.5 0-3-.4-3.2-.8-.3-.5-1.5-.8-2.8-.8-1.3 0-2.5-.4-2.8-.8-.3-.5-1.3-.8-2.2-1-2 0-7.4-1.6-8.3-2.5-.3-.2-1.2-.4-2-.4s-2-.4-3-.8c-2.4-1.3-10-4-11-4-.7 0-.7.5 0 2.7m-24 0c-5 1.3-6 2.5-6 7 0 3.2.4 4 1.6 4 1 0 2 .4 2.5 1 .6.7.7 1.3.3 1.3-.3 0 .3.5 1.4 1 1 .6 2 1.5 1.8 2 0 .5.2 1 .6 1 .5 0 .8-.4.8-.8s.6-.6 1.2-.5c1.5.2 2.6 1.3 1.4 1.3-.5 0-1 .3-1 .8 0 .4 1.4.8 3.2.8 2.2 0 3.8.6 5.5 2 4.4 3.8 5.2 2 2-4.6-1-2.3-2-4.6-2-5.2 0-.6-.3-1-.8-1-.4 0-.8-.5-.8-1 0-.7-.7-2-1.6-3-1-.8-1.6-2-1.6-2.5 0-2.7-4.4-4.6-8.5-3.5"/>
	</g>
</svg>
