<svg xmlns:svg="http://www.w3.org/2000/svg" xmlns="http://www.w3.org/2000/svg" viewBox="0 -256 10589 8960" width="591" height="500" version="1"><g transform="matrix(6.3646154,0,0,-6.3636364,-0.85968751,7889.4546)"><path d="M1325 659 877 211c-28-25-66-24-90 0L339 659c-41 48-6 108 45 109l256 0 0 448c3 37 30 64 64 64l256 0c37-3 64-30 64-64l0-448 256 0c63-6 82-73 45-109zm307-147c19-1 32-15 32-32l0-576c-1-19-15-32-32-32l-1600 0c-19 1-32 15-32 32l0 576c1 19 15 32 32 32l192 0c19-1 32-15 32-32l0-352 1152 0 0 352c1 19 15 32 32 32z" fill="currentColor"/></g></svg>