<svg xmlns="http://www.w3.org/2000/svg" viewBox="0 0 500 423"><path d="M398 186.6L263.6 321.2c-13 12.8-28.3.6-37.2-10.2L102 186.6c-13.4-12.8-.3-36.2 17.3-32.8h73V19.2C192.7 1 212-1.4 226 0c22 .4 44.4-.8 66.5.7 17.7 3.7 15.3 23.2 15.2 37v116c26.8.5 53.6-.6 80.3.7 14.6 2.3 21.3 22 10 32.2zm92.4 44c14.3 2.4 8.3 19.2 9.6 29.4v153.4c-2.3 14.3-19 8.3-29.3 9.6H9.7c-14.4-2.3-8.4-19-9.7-29.3V240.3c2.3-14.3 19-8.3 29.3-9.6 14 .6 28-1 42 1 9.7 7 4.2 20.6 5.6 31V346h346V240.4c2-14.3 19-8.3 29-9.6h38z"/></svg>