<svg xmlns="http://www.w3.org/2000/svg" version="1.1" width="500" height="500">
  <path fill="#111" d="M0 257.8c0 112.5 71.2 208 170.6 242 12.6 2 17.5-6 17.5-12V440c-69 16-83.2-30-83.2-30-12-29.7-27.5-37.6-27.5-37.6-22.3-16 2-16 2-16 25.4 2 38 26 38 26 22.5 38.8 58.5 27.8 73 20.8 2-16.8 9-27.7 15.8-33.7-55.5-6-114-28-114-126.4 0-28 9.8-51 25.4-68.3-3-6-10.7-33 2-67.7 0 0 21.5-7 69 26 19.7-6 41-9 62.6-9 21.3 0 43 3 62.3 9 47.4-33 68-26 68-26 13.5 34.7 5 60.6 3 67.6 15.4 18 25.2 40.8 25.2 68.7 0 97.5-58.5 119.4-114 125.4 8.7 8 16.5 24 16.5 46.8v70c0 7 4.8 15 17.4 12 99.6-34 170.8-129.5 170.8-242C500 113.5 388 0 250.5 0 111 0 0 117.5 0 257.8zm93.6 111.5c-1 1-3 2-4 1-2-1-3-3-2-4s3-2 4-1c2 1 3 3 2 4m10.7 11c-1 1-4 1-5-1-1.8-2-1.8-4-1-5 1-1 4-1 5 1 2 2 2 4 1 5m9.7 15c-2 1-4 0-5.8-2-2-2-2-5 0-6s4 0 5.8 2c2 2 2 5 0 6m13.7 13.8c-1 2-4 1-6.8-1-2-2-3-5-1-7 1-1.3 3.3-1 6.2 1 2 2 3 5 1 7m18.5 9c-1 2-4 3-5.8 2-3-1-5-3-4-5s3-3 6-2c2.7 1 4.7 3 3.7 5m20.7 1c0 2-2 4-5 4-2.8 0-5.8-2-5.8-4s2-4 4.6-4c3 0 6 2 6 4m18.4-3c0 2-2 4-5 5-2.7 1-5.6-1-5.6-3s2-4 5-5 6 1 6 3"/>
</svg>
