<svg xmlns:svg="http://www.w3.org/2000/svg" xmlns="http://www.w3.org/2000/svg" version="1" width="500" height="500"><g transform="matrix(0.97465887,0,0,0.99539484,635.47758,312.55398)"><path d="m-652-55c0 113 73 209 175 243 13 2 18-6 18-12l0-48c-71 16-86-30-86-30-12-30-28-38-28-38-23-16 2-16 2-16 26 2 39 26 39 26 23 39 60 28 75 21 2-17 9-28 16-34-57-6-117-28-117-127 0-28 10-51 26-69-3-6-11-33 2-68 0 0 22-7 71 26 20-6 42-9 64-9 22 0 44 3 64 9 49-33 70-26 70-26 14 35 5 61 3 68 16 18 26 41 26 69 0 98-60 120-117 126 9 8 17 24 17 47l0 70c0 7 5 15 18 12 102-34 175-130 175-243 0-142-115-256-256-256C-538-314-652-196-652-55ZM-556 57c-1 1-3 2-4 1-2-1-3-3-2-4 1-1 3-2 4-1 2 1 3 3 2 4l0 0m11 11 0 0c-1 1-4 1-5-1-2-2-2-4-1-5 1-1 4-1 5 1 2 2 2 4 1 5l0 0m10 15c-2 1-4 0-6-2-2-2-2-5 0-6 2-1 4 0 6 2 2 2 2 5 0 6l0 0m14 14c-1 2-4 1-7-1-2-2-3-5-1-7 1-2 4-1 7 1 2 2 3 5 1 7l0 0m19 9c-1 2-4 3-6 2-3-1-5-3-4-5 1-2 3-3 6-2 3 1 5 3 4 5l0 0m21 1c0 2-2 4-5 4-3 0-6-2-6-4 0-2 2-4 5-4 3 0 6 2 6 4l0 0m19-3c0 2-2 4-5 5-3 1-6-1-6-3 0-2 2-4 5-5 3-1 6 1 6 3l0 0" fill="#1b1817"/></g></svg>