<svg xmlns="http://www.w3.org/2000/svg" width="511.585" height="500" viewBox="12 12 511.58505 500" enable-background="new 12 12 40 40"><path d="M267.793 12C126.433 12 12 126.433 12 267.793c0 113.087 74.045 208.672 175.016 242.33 13.463 2.692 17.502-5.386 17.502-12.117v-43.08c-71.353 14.808-86.162-35.004-86.162-35.004-12.117-28.272-28.272-36.35-28.272-36.35-22.887-16.155 1.346-14.81 1.346-14.81 25.58 1.348 39.042 26.927 39.042 26.927 22.887 39.04 60.583 28.27 74.046 21.54 2.692-16.156 9.423-28.273 16.155-35.004-56.544-6.73-117.126-28.272-117.126-126.55 0-28.272 9.424-49.812 26.925-68.66-2.692-6.73-10.77-32.31 2.693-67.314 0 0 21.54-6.73 70.006 26.926 20.195-5.385 41.736-9.424 64.623-9.424 21.54 0 44.427 2.692 63.275 9.424 48.465-32.31 70.006-26.926 70.006-26.926 13.463 35.003 5.385 61.93 2.692 67.314 16.156 17.502 26.926 40.388 26.926 68.66 0 98.278-60.582 119.82-117.126 126.55 9.424 8.078 17.502 22.887 17.502 47.12v70.006c0 6.73 5.385 14.81 17.5 12.117 100.972-35.005 175.017-130.59 175.017-243.677C523.585 126.433 409.152 12 267.793 12z" fill="#333"/></svg>