<svg xmlns:svg="http://www.w3.org/2000/svg" xmlns="http://www.w3.org/2000/svg" version="1" width="500" height="500"><style>.s0{fill:#fff;}</style><g transform="scale(2.7777778,2.7777778)"><path d="M167 0 13 0C6 0 0 6 0 13l0 154c0 7 6 13 13 13l153 0c8 0 14-6 14-13L180 13C180 6 174 0 167 0" fill="#0977b6"/><path d="m40 25c9 0 15 7 15 15 0 9-7 15-15 15-9 0-15-7-15-15 0-9 7-15 15-15m-13 43 27 0 0 86-27 0 0-86 43 0 26 0 0 12 0 0-26-12 26 0 0 12 0 0c4-7 12-14 25-14 27 0 32 18 32 41l0 47-27 0 0-42c0-10 0-23-14-23-14 0-16 11-16 22l0 43-27 0 0-86" fill="#fff"/></g></svg>