<svg xmlns="http://www.w3.org/2000/svg" viewBox="0 0 500 500">
  <path fill="#0977b6" d="M463 0C320 .2 176.7-.2 33.4.2 6.4 2.4-3.2 32.8 1 55.8c0 137-.3 274 0 411C3.3 493.5 33.7 503 56.6 499c137.4-.3 274.7 1 412-.5 27-4 34.4-34 30.6-57-.3-137.5 1-275-.6-412.3C495.2 13 479.8-.2 463 0z" />
  <path fill="#fff" d="M111 69.4c26-1.3 47 25.8 41 50.7-4.7 29-42.2 42.8-65 26-25-16.4-23-59 4.5-71.6 6-3 12.8-4.5 19.5-4.5zM75 189h75v238.8H75v-239h191.7v33.4c-72.7-33.8-87.2-33.3 0-33.3v33c15.7-29.6 50.8-43 82.8-38.7 28 1 55.8 17.5 65.5 44.7 14.3 38 9 79.3 10 119v80h-75c-.3-46 .7-92-.6-138.2-.4-17-8.8-38-28.4-41-19.7-4.4-44 4-49.7 25-7.5 25.2-3.7 52-4.6 77.6v77h-75V189" />
</svg>
