<svg xmlns="http://www.w3.org/2000/svg" version="1.1" width="500" height="420">
  <path d="M161 419.6c-22.5-6.3-20.3-54 7.5-49.3 25.2.7 50.7.3 74.3-9.8 11.3-2 38.2-21.2 11.7-17.5-52.4-1-105 1.3-157.3-1.8-37-3.7-81.4-18.2-93.4-57.5C-3 254.5 1.6 224 .3 194.3.7 165-4 130.6 19.3 108c33.2-31 82-34 125-34 50 .3 105.3-2.5 148 28.3 22 16 29.6 44.2 27 70-.2 59 1.3 118-.7 176.7-6.2 40.6-49.3 60.4-85.7 67-24 4.4-48 4.4-72 3.6zm107-126.3c1.4-18 0-37.6.6-56.2-.5-27.2 1.3-55-1-82.4-10.7-24-41-27.6-64-29.8-41 .6-82.5-2.8-123.3 2-26.2 2.4-32.8 30-29.3 51.8 0 28.6-.3 57.2.4 85.8C59 289.4 90 291.6 112 293c52 1 104 .6 156 .3zM377 345c-30.4 1.5-25.2-30.3-24.8-49.3.2-75.4-.8-150.8.6-226 2-34 32-58.7 64-64 24-4.4 66.3-9 73.2-2.2 18 14.6 8 49.3-20 47-22.3 1-52-2.5-65.5 19.3-5 10 13.7 6.7 20 6.8 21.3.6 43-1 64.2 1.5 20.6 8.5 11.8 50.7-16.3 48-23.2.6-46.4 0-69.6.8-.8 68 .8 136.4-1 204.5-1.3 12.7-6.7 13.8-25 14z"/>
</svg>
