<svg viewBox="0 0 1380 500" xmlns="http://www.w3.org/2000/svg"><path d="m616.9 204.4c0-2.3-3.8-15.8-5.7-20.7-7.3-17.9-18.9-28.2-36-32-6.8-1.5-24.9-1.5-31.6.1-18.5 4.3-32.8 16.2-39.7 33.2-2.1 5.2-4.6 15.1-4.6 18.3v2.4c12.8-1.4 117.1 3.5 117.6-1.2zm-68.5 171.2c-6.4-.5-17.7-2.3-23.9-3.7-53-12.5-88.1-52.2-97.2-109.7-1.6-10.1-2-34.6-.7-45.5 6.9-59.4 44.9-104.2 99.8-117.6 20.3-4.9 43.6-5.4 63.9-1.3 48 9.7 82.8 45.3 95.8 98.1 4.9 22.3 4.7 34.8 5.2 56.3l-193.8.9c-1.5 1.8.8 18.2 3.9 28 8.2 25.9 26.3 39.4 55.4 41.5 8.3.6 17.5 0 23.8-1.5 18.3-4.2 34.8-15.9 41-28.8l2-4.2 61.9.7c0 .4-1.3 4-2.9 8-7.9 19.8-17.3 34.2-30.8 47.3-19.2 18.5-43.5 28.7-74.7 31.4-7 .6-22.2.7-28.6.2zm-547.1-375.6h112.9l87.6 255c31.9-87.1 55.2-164.7 84.2-254.7l112.7-.3v368.6h-73.6l-1.7-262.8-92.5 262.5-61.5.3-92.9-260.2c-1.9 92.2-1 137.6-1 260.2h-74.2zm715 102.5h67.9l.2 24.7c.2 24.2.2 24.7 1.4 24.7 1 0 2.1-1.6 4.9-6.8 4.6-8.7 8.3-13.8 14.6-20.5 13.9-14.5 30.8-23.8 51.3-28.1 6.7-1.4 22.5-1.5 27.4-.2l3.1.9-.8 66.1c-2.2-.7-10.8-1.6-18.4-2-24.5-1.3-46 6-59 20.2-9.4 10.3-15.6 23.8-19.1 42.1-2.6 54.7-1.6 74.2-1.8 145h-71.6v-266zm200.6-102.5h71.1v368.5h-71.1zm106.9 102.5h71.7v266h-71.7zm105 0h67.9v17.6c0 9.7.2 18 .4 18.6.2.5 1 1 1.8 1 1.1 0 2.3-1.2 5.1-5.2 5-7.1 16.2-18.2 23.5-23 17.9-11.9 37.5-17.1 61.2-16.2 37 1.4 60.3 12.5 74.9 35.7 8.4 13.4 13.3 31.9 15 56.6.9 64.6.6 112.7.6 181.1h-71.6l-1.5-175.6c-1.9-8.9-3.1-12.7-6.3-19.3-4-8.4-9.6-14.3-16.8-17.8-8-3.9-11.3-4.5-24.8-4.5-10.3 0-12.7.2-17.6 1.4-16.1 4-27 13.9-33.3 30.1-2.7 7-5.1 18.6-6 28.8-1 56.6-.7 96-.7 156.9h-71.7v-266zm-105-102.5h71.7v57.9h-71.7z" fill="red"/><path d="m103.8 499c-7.5-2.1-13.5-8.2-15.1-15.5-1-16.2-.7-28-.7-45.2l12.9.4c1.6 10.8-2.1 36.6 1.9 44.7 1.8 3.5 5.5 5.4 10.9 5.3 5.8 0 9.1-1.6 10.7-5.2 2.8-16.4.7-24.2 1.8-44.4l13-.5c-1.5 13.6 2.8 36.8-1.5 47.8-2 5-6.7 9.7-11.8 11.6-4.8 1.9-17 2.4-22.3.9zm88.7.1c-9.3-2.6-15.9-9.5-16.4-17.3-.2-3.2-.3-3.1 6.2-3.1h6.2l.7 2.7c.8 3.1 3.2 5.8 6.2 7.1 2.6 1.1 10.9 1.1 13.6 0 6-2.5 6.2-9.1.3-12.1-.9-.5-5.5-1.9-10.1-3.1-16.4-4.3-21.2-8.4-21.2-18.1 0-4.6 1.2-7.7 4.2-11 6-6.6 17.8-9 28.9-5.8 7.6 2.2 12.9 8.3 13.1 14.8l.1 3.2-5.6.2c-5.8.2-7.3-.3-7.3-2.5 0-.7-.9-2.2-2-3.4-3.9-4.2-13.2-4.5-16.7-.5-1.1 1.3-1.4 2.2-1.3 4.2.3 3.5 2.3 4.8 11.9 7.3 15.1 3.9 18.2 5.6 21.5 11.3 1.6 2.9 1.9 4 1.9 7.8 0 9.4-5.3 15.6-15.7 18.3-4.3 1.1-14.4 1.2-18.4 0zm312.5 0c-5.1-1.5-7.5-2.8-10.6-5.7-3.4-3.2-5.5-7.4-5.8-11.6l-.2-2.8h12.4l1.2 3.3c1.9 5 4.7 6.7 11.8 7 6.7.3 10.2-1.1 11.7-4.7.8-2 .8-2.4-.2-4.5-1.5-3.1-3.5-4.1-13.4-6.7-13.3-3.5-17.9-6.2-20.3-11.5-1.5-3.5-1.6-9.5-.1-13.2.6-1.5 2.5-3.9 4.4-5.7 6.9-6.3 18.7-7.8 29.6-3.7 6.6 2.5 12.1 9.9 11.4 15.5l-.2 1.8h-11.9l-1.4-3c-1.7-3.6-4.2-5.3-8.7-5.8-5.8-.7-10.3 1.5-11.3 5.5-.5 2.1.8 4.5 3.4 5.8 1 .5 6.1 2.1 11.3 3.5 10.7 2.8 12.3 3.5 15.9 6.8 3.6 3.2 4.9 6.4 4.9 11.8 0 7.9-4.6 14.3-12.5 17.4-4.4 1.7-17 2.3-21.5.9zm83.6 0c-5-1.5-7.4-2.7-10.4-5.5-3.3-3.1-5.1-6.2-5.9-10.4-.9-4.6-.7-4.7 6.1-4.5l6 .2 1.2 3.3c1.9 5 4.7 6.7 11.8 7 6.8.3 10.2-1.1 11.7-4.8.9-2.2.9-2.5-.2-4.5-1.6-3-3.7-4-13.5-6.6-17-4.5-21.3-8.2-21.3-18.2 0-5.6 1.3-8.6 5.6-12.4 6.9-6.2 18.6-7.6 29.4-3.6 6.6 2.5 12.1 9.9 11.4 15.5l-.2 1.8h-5.9c-6.3 0-6 .1-7.7-3.8-3.3-7.6-19.6-6.6-19.6 1.2 0 4.1 1.6 5 14.6 8.5 10.7 2.8 12.3 3.5 15.9 6.8 3.6 3.2 4.9 6.4 4.9 11.8 0 7.9-4.6 14.3-12.5 17.4-4.4 1.7-17 2.3-21.5.9zm135.9-.1c-9.9-2.7-16.4-9.9-16.4-18v-2.4h6.2c6.6 0 7 .2 7 3.2 0 1.7 3.7 5.6 6.1 6.7 2.6 1.1 11 1.1 13.6 0 4.4-1.8 6.1-6.3 3.6-9.4-1.9-2.5-3.9-3.3-13.3-5.8-16.6-4.4-21.2-8.5-21.2-18.6 0-6.5 4-12.2 10.7-15.3 10.2-4.7 24.9-2.6 31.3 4.3 2.8 3.1 4.7 7.5 4.4 10.5l-.2 2.1-5.6.2c-5.8.2-7.3-.3-7.3-2.4 0-.6-.8-2.1-1.9-3.3-3.1-3.5-9.4-4.5-14.3-2.3-3 1.4-4 2.8-4 5.9s1.8 4.2 10.2 6.6c3.9 1.1 8.9 2.6 11.2 3.2 10.6 3.1 15.8 10.7 13.9 20.3-1.3 6.5-5.5 11-12.7 13.8-4.5 1.8-16.2 2.2-21.2.8zm88.5-.3c-12.6-4-20.2-15.2-20.2-29.9 0-12 5-22.4 13.6-27.8 8.2-5.2 20.4-5.7 29.7-1.1 10.8 5.3 16.6 16.6 15.8 30.8-.7 12-5.3 20.4-14.4 25.7-6.1 3.6-17.4 4.7-24.6 2.4zm14.6-10.8c7.8-2.3 12.4-12.4 10.7-23.6-1.6-10.6-6.9-16-16-16-5.4 0-9.7 2.1-12.4 6.1-2.8 4.2-3.5 7.1-3.5 14.6 0 5.5.3 7.1 1.4 9.8 3.5 7.8 11.4 11.4 19.6 9zm-827.1 10.5c-.7-21.2-.5-37.3-.5-60.1l18.4.2c16.1.2 18.7.3 20.9 1.3 3.8 1.7 6.5 4.7 7.6 8.2 1.8 6.1.9 10.5-3.3 14.9l-2.8 3 1.8.9c2.5 1.3 5.6 4.7 6.8 7.5 1.1 2.7 1.3 9.1.3 12.7-.9 3.3-6.2 8.5-10.3 10.1-2.8 1.1-5.1 1.3-20.8 1.5-9.7.1-17.8 0-18.1-.2zm32.9-11.5c4.1-2.2 4.9-9 1.6-12.4-.8-.8-2.5-1.8-3.9-2.1-2.6-.7-15.2-.9-16.8-.3l-.6 15.6c.2.2 4.3.4 9 .4 7.1 0 8.9-.2 10.7-1.2zm-2-25.5c4.2-2.2 4.3-9.2.1-11.4-1.5-.8-3.6-1-9.9-.8l-8 .2v12.1c.5 1.2 15.5 1.2 17.9-.1zm231.9 36.4c-.6-1.5-.4-57.7.1-58.6l13-.5v59.7l-13.1-.7zm54 .2c-.4-20.9-.1-36.9 0-59.3l13.2.3 24.3 37.7c.8-13.4.7-23.6.8-38l12.3-.4-.3 60.1h-13.1l-24.1-37.9-1.1 37.9zm91.3-.2c-1.1-24.4-.2-31.6 0-58.4h45.1l-.5 9.6-30.9 1v11.9l28.3.6v10.1l-28.3.6v13.8l31.9 1.1.1 9.5h-45.8zm481.6.2c-.3-20.9-.1-36.9 0-59.3h42.1l-.4 10.1-28.3.9.4 13.5 24.3 1.1v8.5l-24.3 1.1-.8 24.7zm92.5 0c-.6-16.9-.5-29.9-.6-48l-17.6-.6v-10.7h49v10.7l-17.6.6-.6 48.4c-3.7-.4-9.5 1.4-12.6-.5zm77.2 0c-.9-1.1-15.9-58.4-15.5-59.1l12.8-.5 9.6 38.2 10.4-37.9 12.7-.4 10.2 39 9.8-37.9 12.8.1c-5.5 19.6-9.4 39-15.7 58.4h-13.1l-10.3-37.9-10.3 38-13.4-.1zm92.3-.2c0-1.2 21.3-57.6 22.2-58.6l14-.5 21.7 58.6-13.2.9-4.4-12.7h-22.4c-1.6 4.1-2.8 8.3-4.1 12.5l-13.6-.2zm35.7-23.6c-3-8.4-3.8-10.3-7.1-18.7l-6.4 19.1zm57 23.8c-.3-20.9-.1-36.9 0-59.3h19.2c18.6 0 19.3 0 21.8 1.4 3.4 1.8 7.4 6.4 8.3 9.5 2 6.8 0 14.5-4.8 18.4l-2.6 2.1 2.4 2.1c3.3 2.8 4.4 6 5.1 14.3.2 4 .7 7.3 1.5 11.2l-12.8-.1c-.3-.7-.9-4.4-1.3-8.2-1.2-12.7-2.4-13.8-14.9-13.8h-8.3l-.4 22.3-13.2.2zm34.3-34.9c3.4-3.8 3-10.5-.8-12.8-1.7-1.1-3.2-1.2-11-1.2h-9v16.4l9.5-.2 9.5-.2zm55.6 34.9c-.3-20.9-.1-36.9 0-59.3h44.6v10.7l-31.4.6-.1 12.9 29-.3-.5 9.6-28.4 1.1-.3 13.5 32.4.9v10.7z" fill="#666"/></svg>