<svg xmlns="http://www.w3.org/2000/svg" width="389.514mm" height="141.111mm" viewBox="0 0 1380.167 500.00001"><g><g><path transform="matrix(.798 0 0 .798 -41.589 -178.438)"/><path d="M616.877 204.394c0-2.283-3.77-15.846-5.75-20.682-7.32-17.888-18.862-28.17-35.955-32.03-6.756-1.527-24.87-1.48-31.553.08-18.55 4.328-32.803 16.234-39.695 33.156-2.113 5.187-4.64 15.13-4.64 18.257v2.434h58.797c57.69 0 58.795-.023 58.795-1.216zm-68.542 171.19c-6.406-.5-17.703-2.253-23.896-3.71-52.964-12.464-88.143-52.17-97.168-109.67-1.59-10.126-1.96-34.582-.69-45.508 6.91-59.428 44.934-104.23 99.794-117.58 20.265-4.93 43.558-5.418 63.868-1.334 48.01 9.653 82.815 45.276 95.797 98.048 3.4 13.816 4.492 22.897 4.864 40.435l.337 15.878h-96.528c-85.245 0-96.622.11-97.316.948-1.49 1.795.807 18.204 3.915 27.98 8.243 25.917 26.3 39.444 55.356 41.463 8.327.578 17.462.018 23.848-1.463 18.296-4.243 34.795-15.856 40.956-28.827l2.01-4.232 30.97-.012c22.97-.01 30.97.175 30.97.713 0 .4-1.31 4.007-2.91 8.018-7.914 19.83-17.293 34.205-30.842 47.27-19.177 18.49-43.473 28.69-74.72 31.365-7.05.604-22.18.72-28.613.22zM1.252 184.228V-.02h112.93l17.48 51.406c9.615 28.274 29.093 85.56 43.285 127.302 17.085 50.25 26.133 76.02 26.78 76.27.535.205 1.365-.018 1.844-.496.48-.48 19.208-57.862 41.62-127.52L285.94.297l56.367-.16 56.366-.16v368.5h-73.57l-.16-131.268-.157-131.268-1.41-.2c-.98-.14-1.605.24-2.057 1.257-.357.802-20.85 59.892-45.543 131.31l-44.894 129.855-30.728.163-30.728.163L124.26 239.1c-24.84-71.163-45.538-129.78-45.994-130.26-.455-.48-1.274-.7-1.82-.49-.9.344-.992 12.553-.992 130.253v129.873H1.252zm714.98 51.25v-133h67.9l.164 24.683c.162 24.204.19 24.68 1.422 24.68.958 0 2.116-1.623 4.87-6.83 4.585-8.673 8.267-13.827 14.608-20.448 13.897-14.51 30.763-23.764 51.266-28.125 6.666-1.418 22.538-1.523 27.354-.18l3.144.876.163 33.215c.154 31.446.104 33.198-.943 32.89-2.247-.663-10.763-1.594-18.43-2.014-24.55-1.348-46.014 5.998-58.98 20.184-9.447 10.336-15.562 23.813-19.112 42.12-1.31 6.755-1.346 8.544-1.563 75.932l-.223 69.014h-71.64zm200.598-51.25V-.02h71.057V368.475H916.83zm106.9 51.25v-133h71.688v265.996H1023.73zm105.016 0v-133H1196.66v17.557c0 9.656.17 18.003.38 18.55.21.547 1.036.995 1.835.995 1.11 0 2.303-1.226 5.052-5.188 4.958-7.144 16.22-18.185 23.477-23.016 17.936-11.938 37.544-17.14 61.172-16.23 37.03 1.424 60.3 12.518 74.852 35.678 8.434 13.424 13.31 31.856 14.963 56.547.347 5.17.615 46.344.62 95.11l.01 85.993h-71.644l-.23-85.363c-.203-75.616-.345-85.92-1.246-90.24-1.856-8.892-3.08-12.67-6.27-19.334-4.032-8.424-9.56-14.28-16.82-17.814-8.05-3.92-11.327-4.513-24.84-4.494-10.27.013-12.742.215-17.607 1.434-16.087 4.03-27.045 13.936-33.275 30.078-2.687 6.96-5.113 18.64-5.992 28.84-.402 4.656-.653 36.134-.657 82.22l-.01 74.672h-71.686V235.48zM1023.73 28.907V-.018h71.688v57.852H1023.73z" fill="#f00"/><path d="M103.752 498.94c-7.52-2.065-13.495-8.212-15.054-15.484-.395-1.84-.667-11.703-.667-24.167v-21.057l6.446.18 6.446.178.314 21.067c.294 19.684.4 21.23 1.61 23.58 1.82 3.54 5.538 5.35 10.943 5.332 5.776-.02 9.12-1.627 10.72-5.154 1.13-2.487 1.225-4.26 1.246-23.13.013-11.24.255-20.802.538-21.247.376-.594 2.185-.763 6.75-.63l6.236.18-.004 22.01c-.004 21.674-.026 22.067-1.494 25.782-1.98 5.012-6.712 9.694-11.767 11.646-4.85 1.874-16.962 2.37-22.264.913zm88.665.06c-9.332-2.6-15.864-9.51-16.385-17.334-.212-3.187-.297-3.144 6.25-3.144h6.212l.687 2.727c.773 3.065 3.187 5.832 6.203 7.106 2.613 1.105 10.95 1.104 13.56 0 6-2.538 6.167-9.08.312-12.107-.943-.488-5.472-1.88-10.063-3.092-16.446-4.343-21.224-8.426-21.235-18.143-.005-4.573 1.183-7.72 4.17-11.042 5.97-6.64 17.846-9.02 28.877-5.787 7.606 2.23 12.933 8.27 13.092 14.845l.077 3.17-5.565.182c-5.85.19-7.326-.307-7.326-2.47 0-.655-.92-2.183-2.044-3.395-3.91-4.216-13.158-4.503-16.697-.52-1.108 1.25-1.402 2.233-1.256 4.21.26 3.533 2.29 4.77 11.936 7.28 15.07 3.923 18.228 5.586 21.463 11.313 1.623 2.872 1.9 4.016 1.897 7.844-.005 9.412-5.325 15.61-15.726 18.318-4.34 1.13-14.444 1.152-18.437.04zm312.528.03c-5.09-1.5-7.472-2.783-10.61-5.716-3.437-3.216-5.52-7.368-5.84-11.648l-.214-2.83h12.403l1.242 3.328c1.862 4.99 4.72 6.667 11.843 6.95 6.73.266 10.197-1.13 11.69-4.704.838-2.004.82-2.43-.204-4.505-1.53-3.105-3.505-4.097-13.405-6.73-13.26-3.528-17.897-6.168-20.276-11.546-1.536-3.475-1.595-9.493-.128-13.16.616-1.54 2.473-3.938 4.44-5.737 6.947-6.348 18.652-7.832 29.57-3.747 6.59 2.466 12.086 9.89 11.446 15.462l-.2 1.75h-11.93l-1.42-2.995c-1.7-3.58-4.225-5.282-8.653-5.835-5.847-.73-10.338 1.46-11.35 5.533-.524 2.117.847 4.45 3.387 5.764.98.507 6.08 2.066 11.332 3.466 10.688 2.847 12.26 3.522 15.938 6.837 3.555 3.206 4.865 6.365 4.874 11.755.014 7.91-4.586 14.32-12.464 17.367-4.443 1.717-16.966 2.265-21.473.94zm83.635 0c-4.998-1.472-7.405-2.745-10.39-5.498-3.347-3.084-5.14-6.24-5.92-10.42-.854-4.564-.724-4.66 6.08-4.455l5.97.18 1.24 3.327c1.86 4.99 4.72 6.667 11.842 6.95 6.805.27 10.192-1.12 11.738-4.813.9-2.15.886-2.48-.204-4.493-1.633-3.016-3.712-4.04-13.452-6.633-17.05-4.535-21.34-8.2-21.34-18.234 0-5.633 1.323-8.582 5.555-12.387 6.863-6.172 18.616-7.598 29.39-3.567 6.59 2.466 12.087 9.89 11.447 15.462l-.2 1.75h-5.906c-6.31 0-6.03.135-7.738-3.75-3.343-7.605-19.62-6.616-19.62 1.193 0 4.077 1.64 5.028 14.632 8.49 10.69 2.847 12.26 3.522 15.938 6.837 3.555 3.206 4.865 6.365 4.875 11.755.013 7.91-4.587 14.32-12.464 17.367-4.444 1.717-16.967 2.265-21.473.94zm135.893-.086c-9.883-2.766-16.415-9.936-16.415-18.02v-2.402h6.22c6.552 0 6.985.197 6.985 3.173 0 1.65 3.657 5.646 6.1 6.667 2.632 1.1 10.968 1.095 13.57-.007 4.362-1.846 6.053-6.254 3.598-9.375-1.945-2.474-3.91-3.33-13.347-5.823-16.6-4.385-21.25-8.46-21.233-18.604.012-6.51 4.016-12.233 10.684-15.267 10.234-4.658 24.946-2.64 31.342 4.3 2.845 3.086 4.68 7.46 4.392 10.468l-.205 2.144-5.564.183c-5.828.192-7.328-.307-7.328-2.438 0-.637-.848-2.125-1.886-3.307-3.074-3.502-9.405-4.54-14.255-2.337-3.006 1.365-3.98 2.815-3.98 5.927 0 3.095 1.768 4.248 10.188 6.642 3.908 1.11 8.948 2.554 11.2 3.208 10.583 3.068 15.835 10.744 13.86 20.258-1.348 6.49-5.48 10.987-12.687 13.807-4.493 1.758-16.238 2.203-21.237.804zm88.472-.257c-12.61-4.032-20.154-15.21-20.177-29.9-.02-12.034 5.05-22.39 13.616-27.82 8.214-5.205 20.425-5.67 29.698-1.13 10.79 5.28 16.582 16.582 15.796 30.817-.665 12.04-5.338 20.398-14.36 25.684-6.106 3.578-17.364 4.654-24.573 2.35zm14.64-10.822c7.76-2.325 12.364-12.446 10.713-23.548-1.58-10.628-6.927-15.98-15.964-15.98-5.414 0-9.736 2.142-12.38 6.134-2.764 4.173-3.466 7.145-3.454 14.62.01 5.496.252 7.14 1.444 9.813 3.49 7.822 11.4 11.43 19.64 8.962zM.454 498.268c-.253-.254-.46-13.875-.46-30.27v-29.807l18.393.204c16.065.176 18.71.345 20.908 1.332 3.762 1.69 6.507 4.68 7.564 8.237 1.813 6.106.854 10.48-3.262 14.88l-2.825 3.02 1.777.93c2.544 1.333 5.642 4.745 6.776 7.464 1.13 2.706 1.274 9.137.286 12.694-.915 3.3-6.224 8.494-10.316 10.096-2.796 1.094-5.095 1.256-20.76 1.457-9.69.125-17.826.02-18.08-.235zm32.877-11.48c4.054-2.154 4.944-9.03 1.6-12.372-.796-.798-2.546-1.755-3.887-2.127-2.59-.72-15.176-.946-16.85-.304-.83.318-.995 1.612-.995 7.756 0 4.056.19 7.562.42 7.793.23.23 4.267.42 8.97.42 7.117 0 8.92-.196 10.742-1.166zm-1.987-25.512c4.246-2.196 4.315-9.182.113-11.355-1.515-.782-3.604-.954-9.93-.815l-8.014.176-.183 5.61c-.1 3.086-.038 5.987.14 6.446.47 1.227 15.485 1.176 17.875-.06zm231.89 36.395c-.586-1.53-.45-57.697.144-58.63.375-.594 2.184-.763 6.75-.63l6.236.18v59.74l-6.37.178c-5.392.15-6.43.022-6.76-.837zm53.987.212c-.17-.445-.236-13.968-.146-30.05l.164-29.24 6.195-.182c3.782-.11 6.514.084 7.014.5.45.373 6.002 9.014 12.338 19.202 6.336 10.188 11.735 18.523 12 18.523.262 0 .552-8.56.644-19.022l.166-19.022 6.137-.18 6.138-.18-.164 30.05-.164 30.05H354.44l-11.683-18.814c-6.426-10.347-12.033-18.93-12.46-19.07-.603-.2-.814 4.016-.943 18.813l-.167 19.07-5.827.18c-4.308.135-5.908-.03-6.138-.628zm91.265-.232c-.21-.547-.38-13.683-.38-29.19 0-15.506.17-28.642.38-29.19.338-.88 2.918-.993 22.57-.993 19.654 0 22.233.113 22.572.994.738 1.927.408 8.89-.456 9.608-.546.453-6.07.753-15.878.863l-15.042.17v11.948l14.15.314 14.148.315v10.06l-14.15.315-14.148.315v13.834l15.69.17c11.59.124 15.82.37 16.184.943.58.916.68 8.094.13 9.527-.34.88-2.946.994-22.886.994-19.94 0-22.547-.113-22.885-.994zm481.59.208c-.165-.432-.227-13.944-.137-30.026l.164-29.24h42.132l.186 4.616c.115 2.863-.093 4.954-.55 5.502-.59.712-3.434.886-14.512.886h-13.778l.178 6.76.18 6.76 11.918.17c8.572.124 12.057.39 12.41.944.27.425.49 2.328.49 4.23 0 1.903-.22 3.806-.49 4.23-.353.556-3.838.82-12.41.944l-11.92.172-.348 12.262c-.192 6.744-.404 12.333-.472 12.42-.068.086-2.96.156-6.43.156-4.467 0-6.397-.23-6.61-.786zm92.455.023c-.166-.444-.373-11.42-.46-24.39l-.158-23.58-8.804-.315-8.804-.314v-10.689h49.05V449.282l-8.804.315-8.802.315-.315 24.21-.314 24.21-6.143.18c-4.564.134-6.22-.028-6.445-.63zm77.204-.022c-.86-1.088-15.908-58.403-15.505-59.055.18-.29 3.13-.526 6.553-.526h6.227l.622 2.358c.95 3.606 8.23 35.14 8.23 35.654 0 .247.333.34.74.204.406-.136 2.907-8.72 5.557-19.075l4.817-18.83 6.355-.178 6.355-.18.617 2.238c.34 1.23 2.514 10.012 4.83 19.515 2.318 9.504 4.45 17.28 4.74 17.28.647 0 .874-.842 5.606-20.752 2.096-8.82 3.963-16.53 4.148-17.136.292-.95 1.182-1.1 6.583-1.1 5.728 0 6.247.1 6.247 1.2 0 1.08-13.557 52.173-15.157 57.124l-.66 2.044h-6.164c-4.183 0-6.36-.252-6.776-.786-.338-.432-2.672-9.068-5.187-19.19-2.515-10.124-4.807-18.55-5.093-18.728-.614-.38-.64-.29-5.84 20.894-2.222 9.054-4.228 16.765-4.458 17.136-.613.992-12.593.892-13.386-.112zm92.276-.175c0-1.207 21.313-57.544 22.185-58.64.466-.587 2.46-.76 7.307-.63l6.666.178 10.804 28.613c5.942 15.736 10.823 29.248 10.847 30.027.044 1.375-.13 1.414-6.23 1.414-7.35 0-7.035.258-9.74-8.017l-1.696-5.188h-22.444l-1.22 3.3c-.67 1.816-1.575 4.434-2.012 5.817-1.268 4.01-1.422 4.087-8.254 4.087-5.154 0-6.212-.163-6.212-.96zm35.703-23.605c.104-.542-1.276-5.163-3.065-10.268-2.612-7.45-3.406-9.117-4.023-8.447-1.226 1.333-6.795 17.986-6.378 19.073.556 1.452 13.183 1.116 13.465-.358zm57.023 23.78c-.165-.432-.227-13.944-.137-30.026l.165-29.24h19.18c18.578 0 19.26.042 21.774 1.388 3.37 1.803 7.36 6.37 8.297 9.494 2.034 6.788.008 14.475-4.847 18.375l-2.578 2.07 2.436 2.086c3.268 2.797 4.42 6 5.148 14.314.336 3.84.886 7.97 1.22 9.18.337 1.21.613 2.413.615 2.673 0 .26-2.815.47-6.262.47-5.486 0-6.345-.146-6.898-1.18-.347-.65-.93-4.356-1.297-8.237-1.202-12.743-2.388-13.842-14.936-13.846h-8.332v10.64c0 5.85-.172 11.085-.382 11.632-.313.815-1.512.995-6.623.995-4.412 0-6.33-.23-6.542-.786zm34.317-34.872c3.432-3.844 3-10.45-.837-12.788-1.746-1.064-3.197-1.227-10.973-1.23h-8.96v16.44l9.485-.2 9.486-.204 1.8-2.016zm55.61 34.88c-.168-.436-.23-13.952-.14-30.034l.163-29.24H1379.336v10.689l-15.72.316-15.722.314-.188 4.71c-.328 8.232-1.733 7.502 14.817 7.698l14.297.17.182 4.46c.13 3.19-.062 4.664-.678 5.175-.57.473-5.516.772-14.646.884l-13.785.17-.185 5.66c-.306 9.373-2.078 8.44 16.387 8.635l15.868.168v10.69l-22.497.165c-17.66.13-22.563-.006-22.802-.63z" fill="#666"/></g></g></svg>