<svg xmlns:svg="http://www.w3.org/2000/svg" xmlns="http://www.w3.org/2000/svg" width="500" height="500" viewBox="0 0 500 500" version="1.1"><g transform="translate(-277.67642,-59.429512)"><path d="M485.5 555.8C285.8 521.8 207.5 273.8 351.5 131.4 482.6 1.8 705.9 54.8 764.5 229.6 824.4 407.9 670.9 587.4 485.5 555.8ZM566.8 507.7C728.7 473.7 785.2 273.7 664.8 161.3 536.6 41.7 326 132.7 326 307.6c0 129.2 116.7 226.2 240.7 200.1zM373.5 423.8c-2.1-2.1-3.4-6.9-3.4-12.5 0-16.7-3-15.7 49.1-15.7 55.3 0 55.8-0.2 55.8-17.6 0-17.7-0.8-18-45.3-18-55.4 0-58.6-2.7-58.6-48.2 0-47.9 0.4-48.2 77.9-48.2 63.9 0 59.5-1.2 59.5 16.5 0 15.1 0.7 14.9-51.7 14.9-53.4 0-53.3 0-53.2 16.4 0.1 16.4-1.1 16 44.8 17.1 56.6 1.5 60 4.3 60 49.2 0 29-2.7 36.9-14.7 43.9-10.3 6-114.7 7.8-120.4 2.1zm206.4-75.4 0-53.4-15.3 0c-18.3 0-20.4-1.6-20.3-15.6 0-14.7 1-15.5 18.9-16.2l15.7-0.6 1-22.1c1.8-38.1 7.9-42.5 60-43.5 41.3-0.8 42.8-0.3 42.8 15.3 0 16.4 1.4 15.7-35.9 15.7l-33.3 0c0 11.9 0 23.7 0 35.6l32.1 0c36.7 0 37.1 0.2 37.1 15.7 0 15.5-0.4 15.7-37.1 15.7l-32.1 0 0 42.7c0 40.2-0.3 43-4.4 48.2-4.1 5.3-22.2 15.9-27 15.9-1.4 0-2.2-18.1-2.2-53.4z" fill="#000"/></g></svg>