<svg xmlns="http://www.w3.org/2000/svg" version="1.1" width="403" height="500">
  <path fill="#4068bb" d="M.3 301.3H405v-83H.4v83z"/>
  <path fill="#5ca3de" d="M.3 194H405v-83H.4v83z"/>
  <path fill="#9adff7" d="M340.4 0H64C28.4 0 .3 30 .3 66.3v21.4H405V66.3C405 30 376 0 340.5 0"/>
  <path fill="#2d4e9b" d="M.3 324.7c-.3 21-1.2 43.6 13 61 13.3 19.4 37.4 28.5 60.5 26.7h164.5V500l85.3-87.6c18.8.3 39 .7 54.8-11.4 20.8-14 30.5-39.4 28.6-63.7-1.4-4 3.3-14-3.6-12.6H2.2"/>
  <path fill="#455ca6" d="M76.2 412.4H64C28.4 412.4.3 382.4.3 346v-21.3h161.2l-85.3 87.7"/>
  <path fill="#73aee2" d="M287 194H.3v-83h367.3L287 194"/>
  <path fill="#5877c4" d="M184 301.3H.2v-83h264.2l-80.6 83z"/>
</svg>
