<svg xmlns:svg="http://www.w3.org/2000/svg" xmlns="http://www.w3.org/2000/svg" version="1" width="403" height="500"><g transform="matrix(0.93706617,0,0,-0.93283582,-3731.1164,947.79851)"><path d="m3982 693 432 0 0 89-432 0 0-89z" fill="#4068bb"/><path d="m3982 808 432 0 0 89-432 0 0-89z" fill="#5ca3de"/><path d="m4345 1016-295 0c-38 0-68-32-68-71l0-23 432 0 0 23c0 39-31 71-69 71" fill="#9adff7"/><path d="m3982 668 0-23c0-39 31-71 69-71l185 0 0-94 91 94 20 0c38 0 69 32 69 71l0 23-432 0" fill="#2d4e9b"/><path d="m4063 574-13 0c-38 0-68 32-68 71l0 23 172 0-91-94" fill="#455ca6"/><path d="m4288 808-306 0 0 89 392 0-86-89" fill="#73aee2"/><path d="m4178 693-196 0 0 89 282 0-86-89" fill="#5877c4"/></g></svg>