<svg xmlns:svg="http://www.w3.org/2000/svg" xmlns="http://www.w3.org/2000/svg" version="1" width="615" height="500"><g transform="matrix(0.99939549,0,0,0.99980004,0.00199879,0)"><path d="M615 59C593 69 568 76 543 79 569 63 589 39 598 9 574 24 547 34 518 40 495 15 462 0 426 0 356 0 300 57 300 126c0 10 1 20 3 29C198 150 105 99 43 23 32 42 26 63 26 87c0 44 22 82 56 105-21-1-40-6-57-16 0 1 0 1 0 2 0 61 44 112 101 124-11 3-22 4-33 4-8 0-16-1-24-2 16 50 63 87 118 88-43 34-98 54-157 54-10 0-20-1-30-2 56 36 122 57 194 57 232 0 359-192 359-359 0-5 0-11 0-16 25-18 46-40 63-65z" fill="#2aa9e0"/></g></svg>