<svg xmlns="http://www.w3.org/2000/svg" width="173.636mm" height="141.111mm" viewBox="0 0 615.2467 500.00001"><g><path d="M615.37 59.202c-22.64 10.04-46.968 16.828-72.508 19.88 26.063-15.63 46.084-40.37 55.508-69.852-24.4 14.47-51.417 24.972-80.17 30.635C495.17 15.33 462.36 0 426.046 0c-69.722 0-126.252 56.528-126.252 126.245 0 9.896 1.114 19.532 3.274 28.776-104.935-5.27-197.956-55.533-260.225-131.915-10.872 18.65-17.093 40.333-17.093 63.476 0 43.8 22.28 82.444 56.16 105.08-20.7-.653-40.162-6.335-57.184-15.786-.013.523-.013 1.053-.013 1.583 0 61.17 43.522 112.193 101.27 123.8-10.59 2.887-21.742 4.43-33.26 4.43-8.135 0-16.036-.796-23.755-2.266 16.07 50.16 62.693 86.658 117.94 87.673-43.208 33.865-97.644 54.048-156.797 54.048-10.19 0-20.234-.596-30.113-1.758C55.873 479.2 122.233 500.1 193.532 500.1c232.216 0 359.21-192.372 359.21-359.208 0-5.477-.123-10.92-.362-16.337 24.662-17.797 46.065-40.03 62.99-65.346z" fill="#2aa9e0"/></g></svg>